ISO-10303-21;
HEADER;
FILE_DESCRIPTION (( 'STEP AP203' ),
    '1' );
FILE_NAME ('arm.STEP',
    '2026-06-18T09:46:30',
    ( '' ),
    ( '' ),
    'SwSTEP 2.0',
    'SolidWorks 2026',
    '' );
FILE_SCHEMA (( 'CONFIG_CONTROL_DESIGN' ));
ENDSEC;

DATA;
#1 = ORIENTED_EDGE ( 'NONE', *, *, #293, .F. ) ;
#2 = LINE ( 'NONE', #843, #859 ) ;
#3 = DIRECTION ( 'NONE',  ( 0.000000000000000000, -1.000000000000000000, 0.000000000000000000 ) ) ;
#4 = VERTEX_POINT ( 'NONE', #514 ) ;
#5 = LINE ( 'NONE', #496, #597 ) ;
#6 = AXIS2_PLACEMENT_3D ( 'NONE', #118, #274, #396 ) ;
#7 = CARTESIAN_POINT ( 'NONE',  ( -2.602085213965213107E-16, 34.49999999999999289, -4.499999999999999112 ) ) ;
#8 = ORIENTED_EDGE ( 'NONE', *, *, #468, .F. ) ;
#9 = LINE ( 'NONE', #368, #439 ) ;
#10 = EDGE_CURVE ( 'NONE', #480, #387, #380, .T. ) ;
#11 = AXIS2_PLACEMENT_3D ( 'NONE', #290, #434, #850 ) ;
#12 = MECHANICAL_CONTEXT ( 'NONE', #65, 'mechanical' ) ;
#13 = ORIENTED_EDGE ( 'NONE', *, *, #618, .F. ) ;
#14 = DIRECTION ( 'NONE',  ( 0.3162277660168377746, 0.9486832980505138790, -1.626146086005674860E-17 ) ) ;
#15 = EDGE_CURVE ( 'NONE', #753, #216, #160, .T. ) ;
#16 = PERSON_AND_ORGANIZATION ( #89, #477 ) ;
#17 = DIRECTION ( 'NONE',  ( 0.000000000000000000, -1.000000000000000000, 0.000000000000000000 ) ) ;
#18 = DIRECTION ( 'NONE',  ( 0.9486832980505137680, 0.3162277660168379967, -5.485677294651097051E-17 ) ) ;
#19 = VECTOR ( 'NONE', #237, 1000.000000000000000 ) ;
#20 = CC_DESIGN_PERSON_AND_ORGANIZATION_ASSIGNMENT ( #876, #602, ( #445 ) ) ;
#21 = PERSON_AND_ORGANIZATION ( #89, #477 ) ;
#22 = FACE_BOUND ( 'NONE', #700, .T. ) ;
#23 = EDGE_CURVE ( 'NONE', #577, #480, #485, .T. ) ;
#24 = AXIS2_PLACEMENT_3D ( 'NONE', #279, #838, #773 ) ;
#25 = LINE ( 'NONE', #300, #19 ) ;
#26 = EDGE_CURVE ( 'NONE', #178, #617, #589, .T. ) ;
#27 = DATE_AND_TIME ( #443, #191 ) ;
#28 = CARTESIAN_POINT ( 'NONE',  ( 2.602085213965211135E-16, 34.49999999999999289, 4.499999999999997335 ) ) ;
#29 = LINE ( 'NONE', #447, #35 ) ;
#30 = ORIENTED_EDGE ( 'NONE', *, *, #587, .F. ) ;
#31 = CARTESIAN_POINT ( 'NONE',  ( -15.74999999999999289, 5.249999999999994671, -4.499999999999997335 ) ) ;
#32 = DIRECTION ( 'NONE',  ( 0.000000000000000000, -0.000000000000000000, 1.000000000000000000 ) ) ;
#33 = PLANE ( 'NONE',  #759 ) ;
#34 = VERTEX_POINT ( 'NONE', #308 ) ;
#35 = VECTOR ( 'NONE', #794, 1000.000000000000000 ) ;
#36 = CARTESIAN_POINT ( 'NONE',  ( 7.500000000000000000, 24.99999999999999645, 4.499999999999995559 ) ) ;
#37 = VERTEX_POINT ( 'NONE', #451 ) ;
#38 = CARTESIAN_POINT ( 'NONE',  ( 4.500000000000000000, 12.99999999999999822, -4.499999999999999112 ) ) ;
#39 = VECTOR ( 'NONE', #460, 1000.000000000000000 ) ;
#40 = ORIENTED_EDGE ( 'NONE', *, *, #323, .T. ) ;
#41 = APPROVAL_DATE_TIME ( #392, #612 ) ;
#42 = DIRECTION ( 'NONE',  ( -1.000000000000000000, 0.000000000000000000, 0.000000000000000000 ) ) ;
#43 = ORIENTED_EDGE ( 'NONE', *, *, #882, .F. ) ;
#44 = LINE ( 'NONE', #483, #522 ) ;
#45 = ORIENTED_EDGE ( 'NONE', *, *, #831, .T. ) ;
#46 = PERSON_AND_ORGANIZATION ( #89, #477 ) ;
#47 = DIRECTION ( 'NONE',  ( -5.782411586589359857E-17, 0.000000000000000000, -1.000000000000000000 ) ) ;
#48 = CARTESIAN_POINT ( 'NONE',  ( 2.000000000000000000, 11.00000000000000000, 4.499999999999999112 ) ) ;
#49 = ORIENTED_EDGE ( 'NONE', *, *, #710, .F. ) ;
#50 = AXIS2_PLACEMENT_3D ( 'NONE', #791, #675, #249 ) ;
#51 = DIRECTION ( 'NONE',  ( 0.000000000000000000, 1.000000000000000000, 0.000000000000000000 ) ) ;
#52 = ORIENTED_EDGE ( 'NONE', *, *, #326, .F. ) ;
#53 = DIRECTION ( 'NONE',  ( -1.000000000000000000, 0.000000000000000000, -0.000000000000000000 ) ) ;
#54 = AXIS2_PLACEMENT_3D ( 'NONE', #667, #17, #804 ) ;
#55 = EDGE_LOOP ( 'NONE', ( #880, #810, #340, #239 ) ) ;
#56 = ADVANCED_FACE ( 'NONE', ( #528 ), #33, .T. ) ;
#57 = FACE_OUTER_BOUND ( 'NONE', #162, .T. ) ;
#58 = ORIENTED_EDGE ( 'NONE', *, *, #710, .T. ) ;
#59 = CARTESIAN_POINT ( 'NONE',  ( -7.500999999999998558, 13.00000000000000000, 4.499999999999999112 ) ) ;
#60 = CARTESIAN_POINT ( 'NONE',  ( -7.500999999999998558, 13.00000000000000000, -4.499999999999999112 ) ) ;
#61 = ORIENTED_EDGE ( 'NONE', *, *, #532, .F. ) ;
#62 = CC_DESIGN_PERSON_AND_ORGANIZATION_ASSIGNMENT ( #666, #378, ( #347 ) ) ;
#63 = CARTESIAN_POINT ( 'NONE',  ( 7.499999999999999112, 30.00000000000000000, -7.499999999999999112 ) ) ;
#64 = EDGE_CURVE ( 'NONE', #878, #386, #161, .T. ) ;
#65 = APPLICATION_CONTEXT ( 'configuration controlled 3d designs of mechanical parts and assemblies' ) ;
#66 = DIRECTION ( 'NONE',  ( -0.000000000000000000, -0.000000000000000000, -1.000000000000000000 ) ) ;
#67 = ORIENTED_EDGE ( 'NONE', *, *, #778, .T. ) ;
#68 = FACE_OUTER_BOUND ( 'NONE', #622, .T. ) ;
#69 = EDGE_CURVE ( 'NONE', #491, #391, #29, .T. ) ;
#70 = DIRECTION ( 'NONE',  ( 0.000000000000000000, 0.000000000000000000, -1.000000000000000000 ) ) ;
#71 = ORIENTED_EDGE ( 'NONE', *, *, #895, .F. ) ;
#72 = CARTESIAN_POINT ( 'NONE',  ( -4.499999999999999112, 0.000000000000000000, 4.499999999999999112 ) ) ;
#73 = APPROVAL_PERSON_ORGANIZATION ( #526, #87, #366 ) ;
#74 = DIRECTION ( 'NONE',  ( 1.000000000000000000, 0.000000000000000000, 0.000000000000000000 ) ) ;
#75 = ORIENTED_EDGE ( 'NONE', *, *, #116, .F. ) ;
#76 = CARTESIAN_POINT ( 'NONE',  ( 5.999999999999999112, 34.49999999999999289, 14.40105817143579614 ) ) ;
#77 = LINE ( 'NONE', #571, #530 ) ;
#78 = ORIENTED_EDGE ( 'NONE', *, *, #81, .F. ) ;
#79 = CARTESIAN_POINT ( 'NONE',  ( 7.499999999999999112, 0.000000000000000000, -7.499999999999999112 ) ) ;
#80 = VECTOR ( 'NONE', #508, 1000.000000000000000 ) ;
#81 = EDGE_CURVE ( 'NONE', #391, #645, #741, .T. ) ;
#82 = AXIS2_PLACEMENT_3D ( 'NONE', #735, #793, #727 ) ;
#83 = VERTEX_POINT ( 'NONE', #38 ) ;
#84 = LINE ( 'NONE', #847, #351 ) ;
#85 = CARTESIAN_POINT ( 'NONE',  ( 0.000000000000000000, 0.000000000000000000, 0.000000000000000000 ) ) ;
#86 = CARTESIAN_POINT ( 'NONE',  ( 4.499999999999992895, 24.99999999999999645, -4.500000000000000000 ) ) ;
#87 = APPROVAL ( #459, 'UNSPECIFIED' ) ;
#88 = LINE ( 'NONE', #304, #774 ) ;
#89 = PERSON ( 'UNSPECIFIED', 'UNSPECIFIED', 'UNSPECIFIED', ('UNSPECIFIED'), ('UNSPECIFIED'), ('UNSPECIFIED') ) ;
#90 = EDGE_CURVE ( 'NONE', #288, #200, #105, .T. ) ;
#91 = DATE_AND_TIME ( #726, #819 ) ;
#92 = CARTESIAN_POINT ( 'NONE',  ( -7.499999999999999112, 30.00000000000000000, -4.499999999999998224 ) ) ;
#93 = LINE ( 'NONE', #96, #844 ) ;
#94 = CARTESIAN_POINT ( 'NONE',  ( 4.499999999999999112, 34.49999999999999289, -7.499999999999998224 ) ) ;
#95 = DIRECTION ( 'NONE',  ( 5.782411586589359857E-17, -0.000000000000000000, 1.000000000000000000 ) ) ;
#96 = CARTESIAN_POINT ( 'NONE',  ( -6.000000000000000888, 34.49999999999999289, -14.40105817143579792 ) ) ;
#97 = ORIENTED_EDGE ( 'NONE', *, *, #532, .T. ) ;
#98 = VECTOR ( 'NONE', #131, 1000.000000000000114 ) ;
#99 = FACE_OUTER_BOUND ( 'NONE', #614, .T. ) ;
#100 = EDGE_CURVE ( 'NONE', #577, #245, #93, .T. ) ;
#101 = ORIENTED_EDGE ( 'NONE', *, *, #358, .T. ) ;
#102 = ORIENTED_EDGE ( 'NONE', *, *, #750, .T. ) ;
#103 = FACE_OUTER_BOUND ( 'NONE', #409, .T. ) ;
#104 = VERTEX_POINT ( 'NONE', #390 ) ;
#105 = LINE ( 'NONE', #593, #315 ) ;
#106 = EDGE_LOOP ( 'NONE', ( #407, #842 ) ) ;
#107 = LINE ( 'NONE', #465, #393 ) ;
#108 = ORIENTED_EDGE ( 'NONE', *, *, #627, .T. ) ;
#109 = CARTESIAN_POINT ( 'NONE',  ( 7.499999999999999112, 0.000000000000000000, 4.499999999999998224 ) ) ;
#110 = CIRCLE ( 'NONE', #801, 2.000000000000000000 ) ;
#111 = ORIENTED_EDGE ( 'NONE', *, *, #564, .F. ) ;
#112 = DIRECTION ( 'NONE',  ( -0.000000000000000000, -0.000000000000000000, 1.000000000000000000 ) ) ;
#113 = VECTOR ( 'NONE', #3, 1000.000000000000000 ) ;
#114 = DIRECTION ( 'NONE',  ( -0.000000000000000000, 1.000000000000000000, 1.734723475976806848E-16 ) ) ;
#115 = ORIENTED_EDGE ( 'NONE', *, *, #369, .T. ) ;
#116 = EDGE_CURVE ( 'NONE', #500, #273, #25, .T. ) ;
#117 = CARTESIAN_POINT ( 'NONE',  ( 4.336808689942017736E-16, 34.49999999999999289, 7.500000000000000000 ) ) ;
#118 = CARTESIAN_POINT ( 'NONE',  ( -15.74999999999999289, 5.249999999999994671, 14.40105817143579792 ) ) ;
#119 = EDGE_CURVE ( 'NONE', #261, #4, #538, .T. ) ;
#120 = VERTEX_POINT ( 'NONE', #811 ) ;
#121 = VECTOR ( 'NONE', #610, 1000.000000000000000 ) ;
#122 = LINE ( 'NONE', #696, #138 ) ;
#123 = ORIENTED_EDGE ( 'NONE', *, *, #601, .F. ) ;
#124 = DIRECTION ( 'NONE',  ( -0.000000000000000000, -0.000000000000000000, -1.000000000000000000 ) ) ;
#125 = VECTOR ( 'NONE', #42, 1000.000000000000000 ) ;
#126 = DIRECTION ( 'NONE',  ( -1.000000000000000000, 0.000000000000000000, 0.000000000000000000 ) ) ;
#127 = ORIENTED_EDGE ( 'NONE', *, *, #657, .F. ) ;
#128 = DIRECTION ( 'NONE',  ( 0.000000000000000000, 0.000000000000000000, -1.000000000000000000 ) ) ;
#129 = EDGE_CURVE ( 'NONE', #620, #216, #585, .T. ) ;
#130 = VECTOR ( 'NONE', #310, 1000.000000000000000 ) ;
#131 = DIRECTION ( 'NONE',  ( 0.3162277660168381077, -0.9486832980505137680, -1.828559098217032658E-17 ) ) ;
#132 = EDGE_LOOP ( 'NONE', ( #536, #798, #195, #78 ) ) ;
#133 = DIRECTION ( 'NONE',  ( 1.000000000000000000, -0.000000000000000000, -5.782411586589359857E-17 ) ) ;
#134 = PRODUCT_DEFINITION_SHAPE ( 'NONE', 'NONE',  #153 ) ;
#135 = DIRECTION ( 'NONE',  ( 1.000000000000000000, -0.000000000000000000, 0.000000000000000000 ) ) ;
#136 = ORIENTED_EDGE ( 'NONE', *, *, #550, .F. ) ;
#137 = CARTESIAN_POINT ( 'NONE',  ( 7.499999999999999112, 13.00000000000000000, 4.499999999999998224 ) ) ;
#138 = VECTOR ( 'NONE', #251, 1000.000000000000000 ) ;
#139 = DIRECTION ( 'NONE',  ( -1.000000000000000000, 0.000000000000000000, 0.000000000000000000 ) ) ;
#140 = EDGE_LOOP ( 'NONE', ( #295, #837, #552, #212 ) ) ;
#141 = CARTESIAN_POINT ( 'NONE',  ( 4.499999999999999112, 34.49999999999999289, -4.499999999999999112 ) ) ;
#142 = CC_DESIGN_APPROVAL ( #87, ( #153 ) ) ;
#143 = CARTESIAN_POINT ( 'NONE',  ( 7.499999999999999112, 30.00000000000000000, -4.499999999999999112 ) ) ;
#144 = ORIENTED_EDGE ( 'NONE', *, *, #358, .F. ) ;
#145 = DIRECTION ( 'NONE',  ( -5.782411586589359857E-17, 0.000000000000000000, -1.000000000000000000 ) ) ;
#146 = EDGE_CURVE ( 'NONE', #423, #273, #88, .T. ) ;
#147 = LINE ( 'NONE', #775, #113 ) ;
#148 = EDGE_LOOP ( 'NONE', ( #563, #733, #45, #737 ) ) ;
#149 = CARTESIAN_POINT ( 'NONE',  ( 2.000000000000000000, 11.00000000000000000, -4.499999999999999112 ) ) ;
#150 = AXIS2_PLACEMENT_3D ( 'NONE', #401, #830, #616 ) ;
#151 = CIRCLE ( 'NONE', #426, 4.499999999999999112 ) ;
#152 = CALENDAR_DATE ( 2026, 18, 6 ) ;
#153 = PRODUCT_DEFINITION ( 'UNKNOWN', '', #789, #264 ) ;
#154 = DIRECTION ( 'NONE',  ( -0.000000000000000000, 1.000000000000000000, 1.734723475976806848E-16 ) ) ;
#155 = APPLICATION_PROTOCOL_DEFINITION ( 'international standard', 'config_control_design', 1994, #65 ) ;
#156 = EDGE_CURVE ( 'NONE', #828, #577, #523, .T. ) ;
#157 = DIRECTION ( 'NONE',  ( -0.000000000000000000, 0.000000000000000000, -1.000000000000000000 ) ) ;
#158 = DIRECTION ( 'NONE',  ( -0.3162277660168379967, 0.9486832980505137680, 0.000000000000000000 ) ) ;
#159 = FACE_BOUND ( 'NONE', #229, .T. ) ;
#160 = LINE ( 'NONE', #599, #211 ) ;
#161 = CIRCLE ( 'NONE', #557, 2.000000000000000000 ) ;
#162 = EDGE_LOOP ( 'NONE', ( #507, #529, #544, #890 ) ) ;
#163 = APPLICATION_PROTOCOL_DEFINITION ( 'international standard', 'config_control_design', 1994, #199 ) ;
#164 = CIRCLE ( 'NONE', #276, 4.499999999999999112 ) ;
#165 = CARTESIAN_POINT ( 'NONE',  ( -7.499999999999999112, 24.99999999999999645, 4.499999999999996447 ) ) ;
#166 = CARTESIAN_POINT ( 'NONE',  ( -5.999999999999996447, 34.49999999999999289, 4.499999999999997335 ) ) ;
#167 = ORIENTED_EDGE ( 'NONE', *, *, #320, .F. ) ;
#168 = LINE ( 'NONE', #31, #879 ) ;
#169 = VECTOR ( 'NONE', #636, 1000.000000000000000 ) ;
#170 = DIRECTION ( 'NONE',  ( -5.782411586589357392E-17, 0.000000000000000000, -1.000000000000000000 ) ) ;
#171 = ADVANCED_FACE ( 'NONE', ( #545 ), #884, .F. ) ;
#172 = ORIENTED_EDGE ( 'NONE', *, *, #26, .T. ) ;
#173 = DIRECTION ( 'NONE',  ( -1.000000000000000000, 0.000000000000000000, 0.000000000000000000 ) ) ;
#174 = ORIENTED_EDGE ( 'NONE', *, *, #293, .T. ) ;
#175 = EDGE_CURVE ( 'NONE', #288, #120, #764, .T. ) ;
#176 = CC_DESIGN_APPROVAL ( #612, ( #445 ) ) ;
#177 = DIRECTION ( 'NONE',  ( 1.000000000000000000, -0.000000000000000000, -0.000000000000000000 ) ) ;
#178 = VERTEX_POINT ( 'NONE', #252 ) ;
#179 = CARTESIAN_POINT ( 'NONE',  ( 15.75000000000000000, 5.250000000000001776, -7.499999999999999112 ) ) ;
#180 = CIRCLE ( 'NONE', #796, 4.499999999999999112 ) ;
#181 = ORIENTED_EDGE ( 'NONE', *, *, #285, .T. ) ;
#182 = PERSON_AND_ORGANIZATION_ROLE ( 'creator' ) ;
#183 = EDGE_CURVE ( 'NONE', #216, #200, #539, .T. ) ;
#184 = CARTESIAN_POINT ( 'NONE',  ( -4.499999999999999112, 0.000000000000000000, -4.499999999999999112 ) ) ;
#185 = CARTESIAN_POINT ( 'NONE',  ( 7.499999999999999112, 30.00000000000000000, -4.499999999999999112 ) ) ;
#186 = AXIS2_PLACEMENT_3D ( 'NONE', #222, #145, #781 ) ;
#187 = EDGE_CURVE ( 'NONE', #632, #373, #621, .T. ) ;
#188 = ORIENTED_EDGE ( 'NONE', *, *, #284, .T. ) ;
#189 = CARTESIAN_POINT ( 'NONE',  ( 5.999999999999998224, 34.49999999999999289, -7.499999999999998224 ) ) ;
#190 = EDGE_CURVE ( 'NONE', #645, #423, #818, .T. ) ;
#191 = LOCAL_TIME ( 18, 46, 30.00000000000000000, #580 ) ;
#192 = FACE_BOUND ( 'NONE', #395, .T. ) ;
#193 = ORIENTED_EDGE ( 'NONE', *, *, #214, .T. ) ;
#194 = CARTESIAN_POINT ( 'NONE',  ( -7.499999999999999112, 30.00000000000000000, 7.500000000000000000 ) ) ;
#195 = ORIENTED_EDGE ( 'NONE', *, *, #899, .T. ) ;
#196 = LINE ( 'NONE', #693, #299 ) ;
#197 = AXIS2_PLACEMENT_3D ( 'NONE', #233, #377, #173 ) ;
#198 = CARTESIAN_POINT ( 'NONE',  ( -7.499999999999999112, 30.00000000000000000, 7.500000000000000000 ) ) ;
#199 = APPLICATION_CONTEXT ( 'configuration controlled 3d designs of mechanical parts and assemblies' ) ;
#200 = VERTEX_POINT ( 'NONE', #201 ) ;
#201 = CARTESIAN_POINT ( 'NONE',  ( 7.499999999999999112, 0.000000000000000000, -7.499999999999999112 ) ) ;
#202 = AXIS2_PLACEMENT_3D ( 'NONE', #821, #881, #691 ) ;
#203 = PLANE ( 'NONE',  #862 ) ;
#204 = ORIENTED_EDGE ( 'NONE', *, *, #311, .F. ) ;
#205 = ADVANCED_FACE ( 'NONE', ( #903, #751, #342 ), #479, .T. ) ;
#206 = LINE ( 'NONE', #76, #829 ) ;
#207 = CARTESIAN_POINT ( 'NONE',  ( -5.999999999999997335, 34.49999999999999289, -14.40105817143579792 ) ) ;
#208 = ORIENTED_EDGE ( 'NONE', *, *, #839, .T. ) ;
#209 = DIRECTION ( 'NONE',  ( 5.782411586589359857E-17, -0.000000000000000000, 1.000000000000000000 ) ) ;
#210 = DIRECTION ( 'NONE',  ( 5.782411586589359857E-17, -0.000000000000000000, 1.000000000000000000 ) ) ;
#211 = VECTOR ( 'NONE', #724, 1000.000000000000000 ) ;
#212 = ORIENTED_EDGE ( 'NONE', *, *, #882, .T. ) ;
#213 = CARTESIAN_POINT ( 'NONE',  ( -7.499999999999999112, 24.99999999999999645, -4.499999999999999112 ) ) ;
#214 = EDGE_CURVE ( 'NONE', #337, #753, #814, .T. ) ;
#215 = DIRECTION ( 'NONE',  ( -1.000000000000000000, 0.000000000000000000, 0.000000000000000000 ) ) ;
#216 = VERTEX_POINT ( 'NONE', #332 ) ;
#217 = CARTESIAN_POINT ( 'NONE',  ( -4.336808689942017736E-16, 34.49999999999999289, -7.499999999999998224 ) ) ;
#218 = EDGE_CURVE ( 'NONE', #104, #820, #716, .T. ) ;
#219 = VECTOR ( 'NONE', #639, 1000.000000000000114 ) ;
#220 = DIRECTION ( 'NONE',  ( -0.000000000000000000, -1.000000000000000000, -0.000000000000000000 ) ) ;
#221 = ORIENTED_EDGE ( 'NONE', *, *, #382, .F. ) ;
#222 = CARTESIAN_POINT ( 'NONE',  ( 8.327284562965771150E-16, 34.49999999999999289, 14.40105817143579614 ) ) ;
#223 = ORIENTED_EDGE ( 'NONE', *, *, #64, .F. ) ;
#224 = DIRECTION ( 'NONE',  ( 0.3162277660168378302, 0.9486832980505138790, -1.828559098217031118E-17 ) ) ;
#225 = AXIS2_PLACEMENT_3D ( 'NONE', #28, #592, #723 ) ;
#226 = COORDINATED_UNIVERSAL_TIME_OFFSET ( 9, 0, .AHEAD. ) ;
#227 = FACE_OUTER_BOUND ( 'NONE', #888, .T. ) ;
#228 = ADVANCED_FACE ( 'NONE', ( #192, #630 ), #561, .F. ) ;
#229 = EDGE_LOOP ( 'NONE', ( #97, #67 ) ) ;
#230 = MANIFOLD_SOLID_BREP ( 'Cut-Extrude3', #886 ) ;
#231 = AXIS2_PLACEMENT_3D ( 'NONE', #7, #703, #499 ) ;
#232 = DIRECTION ( 'NONE',  ( -5.782411586589359857E-17, 0.000000000000000000, -1.000000000000000000 ) ) ;
#233 = CARTESIAN_POINT ( 'NONE',  ( 0.000000000000000000, 11.00000000000000000, 4.499999999999999112 ) ) ;
#234 = COORDINATED_UNIVERSAL_TIME_OFFSET ( 9, 0, .AHEAD. ) ;
#235 = CYLINDRICAL_SURFACE ( 'NONE', #677, 4.499999999999999112 ) ;
#236 = ORIENTED_EDGE ( 'NONE', *, *, #10, .F. ) ;
#237 = DIRECTION ( 'NONE',  ( -5.782411586589358625E-17, 0.000000000000000000, -1.000000000000000000 ) ) ;
#238 = AXIS2_PLACEMENT_3D ( 'NONE', #411, #760, #680 ) ;
#239 = ORIENTED_EDGE ( 'NONE', *, *, #100, .F. ) ;
#240 = AXIS2_PLACEMENT_3D ( 'NONE', #408, #260, #481 ) ;
#241 = CARTESIAN_POINT ( 'NONE',  ( -7.499999999999999112, 30.00000000000000000, -4.499999999999998224 ) ) ;
#242 = ORIENTED_EDGE ( 'NONE', *, *, #271, .T. ) ;
#243 = ORIENTED_EDGE ( 'NONE', *, *, #778, .F. ) ;
#244 = ADVANCED_FACE ( 'NONE', ( #889 ), #626, .F. ) ;
#245 = VERTEX_POINT ( 'NONE', #556 ) ;
#246 = COORDINATED_UNIVERSAL_TIME_OFFSET ( 9, 0, .AHEAD. ) ;
#247 = VECTOR ( 'NONE', #66, 1000.000000000000000 ) ;
#248 = PLANE ( 'NONE',  #240 ) ;
#249 = DIRECTION ( 'NONE',  ( -1.000000000000000000, 0.000000000000000000, 0.000000000000000000 ) ) ;
#250 = ORIENTED_EDGE ( 'NONE', *, *, #899, .F. ) ;
#251 = DIRECTION ( 'NONE',  ( -5.782411586589359857E-17, 0.000000000000000000, -1.000000000000000000 ) ) ;
#252 = CARTESIAN_POINT ( 'NONE',  ( -4.500000000000000000, 24.99999999999999645, -4.499999999999999112 ) ) ;
#253 = VECTOR ( 'NONE', #456, 1000.000000000000114 ) ;
#254 = ORIENTED_EDGE ( 'NONE', *, *, #594, .F. ) ;
#255 = CALENDAR_DATE ( 2026, 18, 6 ) ;
#256 = DIRECTION ( 'NONE',  ( -5.142325439945996840E-17, 0.000000000000000000, -1.000000000000000000 ) ) ;
#257 = ORIENTED_EDGE ( 'NONE', *, *, #725, .F. ) ;
#258 = CARTESIAN_POINT ( 'NONE',  ( 2.602085213965211135E-16, 34.49999999999999289, 4.499999999999997335 ) ) ;
#259 = ORIENTED_EDGE ( 'NONE', *, *, #587, .T. ) ;
#260 = DIRECTION ( 'NONE',  ( 5.782411586589358625E-17, -0.000000000000000000, 1.000000000000000000 ) ) ;
#261 = VERTEX_POINT ( 'NONE', #48 ) ;
#262 = AXIS2_PLACEMENT_3D ( 'NONE', #779, #427, #215 ) ;
#263 = DIRECTION ( 'NONE',  ( -0.000000000000000000, -1.000000000000000000, -0.000000000000000000 ) ) ;
#264 = DESIGN_CONTEXT ( 'detailed design', #199, 'design' ) ;
#265 = ORIENTED_EDGE ( 'NONE', *, *, #712, .F. ) ;
#266 = EDGE_CURVE ( 'NONE', #335, #178, #196, .T. ) ;
#267 = CYLINDRICAL_SURFACE ( 'NONE', #752, 6.000000000000000000 ) ;
#268 = ORIENTED_EDGE ( 'NONE', *, *, #618, .T. ) ;
#269 = LINE ( 'NONE', #325, #121 ) ;
#270 = VECTOR ( 'NONE', #474, 1000.000000000000000 ) ;
#271 = EDGE_CURVE ( 'NONE', #598, #637, #180, .T. ) ;
#272 = PLANE ( 'NONE',  #505 ) ;
#273 = VERTEX_POINT ( 'NONE', #109 ) ;
#274 = DIRECTION ( 'NONE',  ( -0.9486832980505138790, 0.3162277660168377746, 5.485677294651097667E-17 ) ) ;
#275 = ADVANCED_FACE ( 'NONE', ( #755 ), #405, .T. ) ;
#276 = AXIS2_PLACEMENT_3D ( 'NONE', #584, #170, #858 ) ;
#277 = LINE ( 'NONE', #717, #247 ) ;
#278 = EDGE_LOOP ( 'NONE', ( #415, #692, #473, #665, #640, #309, #1, #851, #815, #524, #360, #259 ) ) ;
#279 = CARTESIAN_POINT ( 'NONE',  ( -4.499999999999999112, 30.00000000000000000, 4.499999999999999112 ) ) ;
#280 = PRODUCT_RELATED_PRODUCT_CATEGORY ( 'detail', '', ( #347 ) ) ;
#281 = DIRECTION ( 'NONE',  ( 5.142325439945996840E-17, -0.000000000000000000, 1.000000000000000000 ) ) ;
#282 = EDGE_LOOP ( 'NONE', ( #625, #40, #461, #257, #13, #111 ) ) ;
#283 = FACE_OUTER_BOUND ( 'NONE', #885, .T. ) ;
#284 = EDGE_CURVE ( 'NONE', #261, #386, #44, .T. ) ;
#285 = EDGE_CURVE ( 'NONE', #469, #500, #269, .T. ) ;
#286 = FACE_OUTER_BOUND ( 'NONE', #344, .T. ) ;
#287 = AXIS2_PLACEMENT_3D ( 'NONE', #551, #744, #893 ) ;
#288 = VERTEX_POINT ( 'NONE', #429 ) ;
#289 = CARTESIAN_POINT ( 'NONE',  ( 7.499999999999999112, 24.99999999999999645, -4.500000000000000000 ) ) ;
#290 = CARTESIAN_POINT ( 'NONE',  ( -7.499999999999999112, 24.99999999999999645, -4.499999999999999112 ) ) ;
#291 = ORIENTED_EDGE ( 'NONE', *, *, #331, .F. ) ;
#292 = CARTESIAN_POINT ( 'NONE',  ( 15.75000000000000000, 5.250000000000001776, -4.500000000000000888 ) ) ;
#293 = EDGE_CURVE ( 'NONE', #547, #335, #504, .T. ) ;
#294 = CARTESIAN_POINT ( 'NONE',  ( -4.499999999999999112, 34.49999999999999289, -4.499999999999999112 ) ) ;
#295 = ORIENTED_EDGE ( 'NONE', *, *, #765, .F. ) ;
#296 = FACE_OUTER_BOUND ( 'NONE', #148, .T. ) ;
#297 = PERSON_AND_ORGANIZATION ( #89, #477 ) ;
#298 = CARTESIAN_POINT ( 'NONE',  ( 7.500000000000000000, 30.00000000000000000, 7.499999999999999112 ) ) ;
#299 = VECTOR ( 'NONE', #336, 1000.000000000000000 ) ;
#300 = CARTESIAN_POINT ( 'NONE',  ( 7.500000000000000000, 0.000000000000000000, 7.499999999999999112 ) ) ;
#301 = VECTOR ( 'NONE', #638, 1000.000000000000000 ) ;
#302 = DIRECTION ( 'NONE',  ( 0.3162277660168377746, 0.9486832980505138790, 0.000000000000000000 ) ) ;
#303 = LINE ( 'NONE', #588, #317 ) ;
#304 = CARTESIAN_POINT ( 'NONE',  ( 7.499999999999999112, 0.000000000000000000, 4.499999999999998224 ) ) ;
#305 = APPROVAL_PERSON_ORGANIZATION ( #16, #512, #857 ) ;
#306 = APPROVAL_DATE_TIME ( #27, #87 ) ;
#307 = CARTESIAN_POINT ( 'NONE',  ( -7.499999999999999112, 0.000000000000000000, 7.500000000000000000 ) ) ;
#308 = CARTESIAN_POINT ( 'NONE',  ( 7.499999999999999112, 30.00000000000000000, 4.499999999999995559 ) ) ;
#309 = ORIENTED_EDGE ( 'NONE', *, *, #839, .F. ) ;
#310 = DIRECTION ( 'NONE',  ( 0.000000000000000000, -0.000000000000000000, 1.000000000000000000 ) ) ;
#311 = EDGE_CURVE ( 'NONE', #598, #37, #361, .T. ) ;
#312 = CARTESIAN_POINT ( 'NONE',  ( -4.499999999999999112, 34.49999999999999289, 7.500000000000000000 ) ) ;
#313 = ORIENTED_EDGE ( 'NONE', *, *, #669, .T. ) ;
#314 = ORIENTED_EDGE ( 'NONE', *, *, #382, .T. ) ;
#315 = VECTOR ( 'NONE', #732, 1000.000000000000000 ) ;
#316 = EDGE_LOOP ( 'NONE', ( #763, #872, #802, #174 ) ) ;
#317 = VECTOR ( 'NONE', #797, 1000.000000000000000 ) ;
#318 = LINE ( 'NONE', #856, #586 ) ;
#319 = CARTESIAN_POINT ( 'NONE',  ( 0.000000000000000000, 11.00000000000000000, -4.499999999999999112 ) ) ;
#320 = EDGE_CURVE ( 'NONE', #104, #753, #711, .T. ) ;
#321 = ORIENTED_EDGE ( 'NONE', *, *, #129, .F. ) ;
#322 = APPROVAL_STATUS ( 'not_yet_approved' ) ;
#323 = EDGE_CURVE ( 'NONE', #503, #500, #5, .T. ) ;
#324 = PLANE ( 'NONE',  #202 ) ;
#325 = CARTESIAN_POINT ( 'NONE',  ( 7.500000000000000000, 30.00000000000000000, 7.499999999999999112 ) ) ;
#326 = EDGE_CURVE ( 'NONE', #104, #620, #206, .T. ) ;
#327 = EDGE_LOOP ( 'NONE', ( #869, #758 ) ) ;
#328 = APPROVAL_PERSON_ORGANIZATION ( #46, #612, #329 ) ;
#329 = APPROVAL_ROLE ( '' ) ;
#330 = DIRECTION ( 'NONE',  ( -1.000000000000000000, 0.000000000000000000, 0.000000000000000000 ) ) ;
#331 = EDGE_CURVE ( 'NONE', #200, #373, #641, .T. ) ;
#332 = CARTESIAN_POINT ( 'NONE',  ( 7.499999999999999112, 30.00000000000000000, -7.499999999999999112 ) ) ;
#333 = VERTEX_POINT ( 'NONE', #72 ) ;
#334 = CARTESIAN_POINT ( 'NONE',  ( -4.336808689942017736E-16, 34.49999999999999289, -7.499999999999998224 ) ) ;
#335 = VERTEX_POINT ( 'NONE', #424 ) ;
#336 = DIRECTION ( 'NONE',  ( 0.000000000000000000, 0.000000000000000000, -1.000000000000000000 ) ) ;
#337 = VERTEX_POINT ( 'NONE', #289 ) ;
#338 = PERSON_AND_ORGANIZATION ( #89, #477 ) ;
#339 = CARTESIAN_POINT ( 'NONE',  ( -7.499999999999999112, 30.00000000000000000, -7.499999999999998224 ) ) ;
#340 = ORIENTED_EDGE ( 'NONE', *, *, #564, .T. ) ;
#341 = AXIS2_PLACEMENT_3D ( 'NONE', #647, #661, #454 ) ;
#342 = FACE_BOUND ( 'NONE', #327, .T. ) ;
#343 = DIRECTION ( 'NONE',  ( 0.9486832980505138790, -0.3162277660168377746, -5.485677294651097667E-17 ) ) ;
#344 = EDGE_LOOP ( 'NONE', ( #780, #746, #314, #49 ) ) ;
#345 = ADVANCED_FACE ( 'NONE', ( #634 ), #573, .F. ) ;
#346 = CARTESIAN_POINT ( 'NONE',  ( -7.499999999999999112, 30.00000000000000000, -7.499999999999998224 ) ) ;
#347 = PRODUCT ( 'arm', 'arm', '', ( #12 ) ) ;
#348 = CARTESIAN_POINT ( 'NONE',  ( 7.499999999999996447, 30.00000000000000000, 4.499999999999997335 ) ) ;
#349 = VERTEX_POINT ( 'NONE', #715 ) ;
#350 = PLANE ( 'NONE',  #24 ) ;
#351 = VECTOR ( 'NONE', #364, 1000.000000000000000 ) ;
#352 = CC_DESIGN_PERSON_AND_ORGANIZATION_ASSIGNMENT ( #21, #182, ( #789 ) ) ;
#353 = LINE ( 'NONE', #631, #849 ) ;
#354 = ORIENTED_EDGE ( 'NONE', *, *, #190, .F. ) ;
#355 = EDGE_CURVE ( 'NONE', #676, #503, #84, .T. ) ;
#356 = LINE ( 'NONE', #213, #301 ) ;
#357 = CIRCLE ( 'NONE', #383, 6.000000000000000000 ) ;
#358 = EDGE_CURVE ( 'NONE', #120, #423, #433, .T. ) ;
#359 = DIRECTION ( 'NONE',  ( -0.000000000000000000, -0.000000000000000000, 1.000000000000000000 ) ) ;
#360 = ORIENTED_EDGE ( 'NONE', *, *, #765, .T. ) ;
#361 = LINE ( 'NONE', #569, #450 ) ;
#362 = DIRECTION ( 'NONE',  ( -0.000000000000000000, -0.000000000000000000, 1.000000000000000000 ) ) ;
#363 = EDGE_LOOP ( 'NONE', ( #581, #805, #892, #740, #265, #475 ) ) ;
#364 = DIRECTION ( 'NONE',  ( -0.000000000000000000, -1.000000000000000000, -0.000000000000000000 ) ) ;
#365 = AXIS2_PLACEMENT_3D ( 'NONE', #813, #624, #126 ) ;
#366 = APPROVAL_ROLE ( '' ) ;
#367 = ORIENTED_EDGE ( 'NONE', *, *, #745, .F. ) ;
#368 = CARTESIAN_POINT ( 'NONE',  ( 7.499999999999999112, 24.99999999999999645, -4.500000000000000000 ) ) ;
#369 = EDGE_CURVE ( 'NONE', #875, #883, #151, .T. ) ;
#370 = LINE ( 'NONE', #652, #430 ) ;
#371 = LINE ( 'NONE', #375, #471 ) ;
#372 = LOCAL_TIME ( 18, 46, 30.00000000000000000, #553 ) ;
#373 = VERTEX_POINT ( 'NONE', #646 ) ;
#374 = CARTESIAN_POINT ( 'NONE',  ( 4.500000000000000000, 13.00000000000000000, 4.499999999999999112 ) ) ;
#375 = CARTESIAN_POINT ( 'NONE',  ( 4.500000000000000000, 34.49999999999999289, 14.40105817143579614 ) ) ;
#376 = AXIS2_PLACEMENT_3D ( 'NONE', #823, #128, #53 ) ;
#377 = DIRECTION ( 'NONE',  ( 0.000000000000000000, 0.000000000000000000, -1.000000000000000000 ) ) ;
#378 = PERSON_AND_ORGANIZATION_ROLE ( 'design_owner' ) ;
#379 = CARTESIAN_POINT ( 'NONE',  ( 7.500000000000000000, 0.000000000000000000, 7.499999999999999112 ) ) ;
#380 = LINE ( 'NONE', #668, #673 ) ;
#381 = ORIENTED_EDGE ( 'NONE', *, *, #615, .T. ) ;
#382 = EDGE_CURVE ( 'NONE', #559, #337, #9, .T. ) ;
#383 = AXIS2_PLACEMENT_3D ( 'NONE', #431, #281, #490 ) ;
#384 = LINE ( 'NONE', #672, #488 ) ;
#385 = ORIENTED_EDGE ( 'NONE', *, *, #146, .F. ) ;
#386 = VERTEX_POINT ( 'NONE', #149 ) ;
#387 = VERTEX_POINT ( 'NONE', #421 ) ;
#388 = LINE ( 'NONE', #662, #788 ) ;
#389 = VERTEX_POINT ( 'NONE', #141 ) ;
#390 = CARTESIAN_POINT ( 'NONE',  ( 6.000000000000000000, 34.49999999999999289, -4.499999999999999112 ) ) ;
#391 = VERTEX_POINT ( 'NONE', #649 ) ;
#392 = DATE_AND_TIME ( #608, #372 ) ;
#393 = VECTOR ( 'NONE', #486, 1000.000000000000000 ) ;
#394 = CARTESIAN_POINT ( 'NONE',  ( 4.500000000000000000, 0.000000000000000000, -4.499999999999999112 ) ) ;
#395 = EDGE_LOOP ( 'NONE', ( #846, #689 ) ) ;
#396 = DIRECTION ( 'NONE',  ( -0.3162277660168377746, -0.9486832980505138790, 0.000000000000000000 ) ) ;
#397 = ORIENTED_EDGE ( 'NONE', *, *, #90, .T. ) ;
#398 = EDGE_CURVE ( 'NONE', #632, #704, #2, .T. ) ;
#399 = AXIS2_PLACEMENT_3D ( 'NONE', #748, #827, #682 ) ;
#400 = DIRECTION ( 'NONE',  ( 5.782411586589359857E-17, -0.000000000000000000, 1.000000000000000000 ) ) ;
#401 = CARTESIAN_POINT ( 'NONE',  ( -7.500999999999998558, 13.00000000000000000, 4.499999999999999112 ) ) ;
#402 = ORIENTED_EDGE ( 'NONE', *, *, #15, .F. ) ;
#403 = CARTESIAN_POINT ( 'NONE',  ( 4.500000000000000000, 12.99999999999999822, 4.499999999999999112 ) ) ;
#404 = ORIENTED_EDGE ( 'NONE', *, *, #497, .T. ) ;
#405 = PLANE ( 'NONE',  #6 ) ;
#406 = VECTOR ( 'NONE', #663, 1000.000000000000000 ) ;
#407 = ORIENTED_EDGE ( 'NONE', *, *, #271, .F. ) ;
#408 = CARTESIAN_POINT ( 'NONE',  ( 7.499999999999999112, 30.00000000000000000, -7.499999999999999112 ) ) ;
#409 = EDGE_LOOP ( 'NONE', ( #242, #718, #898, #204 ) ) ;
#410 = CIRCLE ( 'NONE', #525, 6.000000000000000000 ) ;
#411 = CARTESIAN_POINT ( 'NONE',  ( -2.602085213965213107E-16, 34.49999999999999289, -4.499999999999999112 ) ) ;
#412 = ADVANCED_FACE ( 'NONE', ( #296 ), #701, .T. ) ;
#413 = ADVANCED_BREP_SHAPE_REPRESENTATION ( 'arm', ( #230, #515 ), #695 ) ;
#414 = CARTESIAN_POINT ( 'NONE',  ( 4.499999999999999112, 34.49999999999999289, 4.499999999999997335 ) ) ;
#415 = ORIENTED_EDGE ( 'NONE', *, *, #517, .F. ) ;
#416 = AXIS2_PLACEMENT_3D ( 'NONE', #418, #708, #74 ) ;
#417 = DIRECTION ( 'NONE',  ( -1.000000000000000000, 0.000000000000000000, 5.782411586589357392E-17 ) ) ;
#418 = CARTESIAN_POINT ( 'NONE',  ( 0.000000000000000000, 11.00000000000000000, -4.499999999999999112 ) ) ;
#419 = EDGE_LOOP ( 'NONE', ( #243, #404, #495, #607 ) ) ;
#420 = ADVANCED_FACE ( 'NONE', ( #68 ), #350, .T. ) ;
#421 = CARTESIAN_POINT ( 'NONE',  ( 5.999999999999996447, 34.49999999999999289, 7.499999999999999112 ) ) ;
#422 = CARTESIAN_POINT ( 'NONE',  ( -4.499999999999999112, 34.49999999999999289, -7.499999999999998224 ) ) ;
#423 = VERTEX_POINT ( 'NONE', #137 ) ;
#424 = CARTESIAN_POINT ( 'NONE',  ( -4.499999999999999112, 24.99999999999999645, 4.499999999999999112 ) ) ;
#425 = EDGE_CURVE ( 'NONE', #349, #178, #356, .T. ) ;
#426 = AXIS2_PLACEMENT_3D ( 'NONE', #217, #769, #501 ) ;
#427 = DIRECTION ( 'NONE',  ( -5.782411586589359857E-17, 0.000000000000000000, -1.000000000000000000 ) ) ;
#428 = ORIENTED_EDGE ( 'NONE', *, *, #116, .T. ) ;
#429 = CARTESIAN_POINT ( 'NONE',  ( 7.499999999999999112, 0.000000000000000000, -4.500000000000000000 ) ) ;
#430 = VECTOR ( 'NONE', #803, 1000.000000000000000 ) ;
#431 = CARTESIAN_POINT ( 'NONE',  ( -4.336808689942017736E-16, 34.49999999999999289, -7.499999999999998224 ) ) ;
#432 = ORIENTED_EDGE ( 'NONE', *, *, #183, .F. ) ;
#433 = LINE ( 'NONE', #784, #560 ) ;
#434 = DIRECTION ( 'NONE',  ( 0.000000000000000000, -1.000000000000000000, 0.000000000000000000 ) ) ;
#435 = VECTOR ( 'NONE', #492, 1000.000000000000000 ) ;
#436 = ORIENTED_EDGE ( 'NONE', *, *, #509, .T. ) ;
#437 = DIRECTION ( 'NONE',  ( 1.000000000000000000, -0.000000000000000000, -5.782411586589357392E-17 ) ) ;
#438 = ADVANCED_FACE ( 'NONE', ( #283 ), #777, .T. ) ;
#439 = VECTOR ( 'NONE', #578, 1000.000000000000000 ) ;
#440 = EDGE_CURVE ( 'NONE', #4, #261, #110, .T. ) ;
#441 = DATE_AND_TIME ( #152, #707 ) ;
#442 = DIRECTION ( 'NONE',  ( 1.000000000000000000, -0.000000000000000000, -5.782411586589359857E-17 ) ) ;
#443 = CALENDAR_DATE ( 2026, 18, 6 ) ;
#444 = PLANE ( 'NONE',  #54 ) ;
#445 = SECURITY_CLASSIFICATION ( '', '', #470 ) ;
#446 = CC_DESIGN_PERSON_AND_ORGANIZATION_ASSIGNMENT ( #297, #865, ( #153 ) ) ;
#447 = CARTESIAN_POINT ( 'NONE',  ( 4.500000000000000000, 24.99999999999999645, 4.499999999999999112 ) ) ;
#448 = EDGE_CURVE ( 'NONE', #547, #349, #384, .T. ) ;
#449 = LINE ( 'NONE', #92, #874 ) ;
#450 = VECTOR ( 'NONE', #209, 1000.000000000000000 ) ;
#451 = CARTESIAN_POINT ( 'NONE',  ( 4.499999999999999112, 34.49999999999999289, 7.500000000000000000 ) ) ;
#452 = ADVANCED_FACE ( 'NONE', ( #739 ), #444, .F. ) ;
#453 = ORIENTED_EDGE ( 'NONE', *, *, #26, .F. ) ;
#454 = DIRECTION ( 'NONE',  ( 1.000000000000000000, 0.000000000000000000, 0.000000000000000000 ) ) ;
#455 = CARTESIAN_POINT ( 'NONE',  ( 0.000000000000000000, 11.00000000000000000, 4.499999999999999112 ) ) ;
#456 = DIRECTION ( 'NONE',  ( 0.3162277660168377746, 0.9486832980505138790, 0.000000000000000000 ) ) ;
#457 = ORIENTED_EDGE ( 'NONE', *, *, #848, .F. ) ;
#458 = VECTOR ( 'NONE', #531, 1000.000000000000000 ) ;
#459 = APPROVAL_STATUS ( 'not_yet_approved' ) ;
#460 = DIRECTION ( 'NONE',  ( -0.000000000000000000, -1.000000000000000000, -0.000000000000000000 ) ) ;
#461 = ORIENTED_EDGE ( 'NONE', *, *, #285, .F. ) ;
#462 = ADVANCED_FACE ( 'NONE', ( #99, #22, #159 ), #518, .T. ) ;
#463 = ORIENTED_EDGE ( 'NONE', *, *, #694, .T. ) ;
#464 = ORIENTED_EDGE ( 'NONE', *, *, #448, .T. ) ;
#465 = CARTESIAN_POINT ( 'NONE',  ( 7.499999999999999112, 30.00000000000000000, 4.499999999999995559 ) ) ;
#466 = VERTEX_POINT ( 'NONE', #312 ) ;
#467 = DIRECTION ( 'NONE',  ( 1.000000000000000000, -0.000000000000000000, -5.782411586589358625E-17 ) ) ;
#468 = EDGE_CURVE ( 'NONE', #349, #534, #449, .T. ) ;
#469 = VERTEX_POINT ( 'NONE', #298 ) ;
#470 = SECURITY_CLASSIFICATION_LEVEL ( 'unclassified' ) ;
#471 = VECTOR ( 'NONE', #232, 1000.000000000000000 ) ;
#472 = FACE_OUTER_BOUND ( 'NONE', #629, .T. ) ;
#473 = ORIENTED_EDGE ( 'NONE', *, *, #190, .T. ) ;
#474 = DIRECTION ( 'NONE',  ( -0.000000000000000000, -1.000000000000000000, -0.000000000000000000 ) ) ;
#475 = ORIENTED_EDGE ( 'NONE', *, *, #129, .T. ) ;
#476 = PERSON_AND_ORGANIZATION_ROLE ( 'design_supplier' ) ;
#477 = ORGANIZATION ( 'UNSPECIFIED', 'UNSPECIFIED', '' ) ;
#478 = FACE_OUTER_BOUND ( 'NONE', #363, .T. ) ;
#479 = PLANE ( 'NONE',  #376 ) ;
#480 = VERTEX_POINT ( 'NONE', #596 ) ;
#481 = DIRECTION ( 'NONE',  ( 1.000000000000000000, 0.000000000000000000, -5.782411586589358625E-17 ) ) ;
#482 = ORIENTED_EDGE ( 'NONE', *, *, #320, .T. ) ;
#483 = CARTESIAN_POINT ( 'NONE',  ( 2.000000000000000000, 11.00000000000000000, 10.15685424949237969 ) ) ;
#484 = EDGE_CURVE ( 'NONE', #637, #598, #574, .T. ) ;
#485 = CIRCLE ( 'NONE', #50, 6.000000000000000000 ) ;
#486 = DIRECTION ( 'NONE',  ( 0.000000000000000000, -1.000000000000000000, 0.000000000000000000 ) ) ;
#487 = ORIENTED_EDGE ( 'NONE', *, *, #468, .T. ) ;
#488 = VECTOR ( 'NONE', #513, 1000.000000000000000 ) ;
#489 = CARTESIAN_POINT ( 'NONE',  ( 7.499999999999999112, 0.000000000000000000, -4.500000000000000000 ) ) ;
#490 = DIRECTION ( 'NONE',  ( -1.000000000000000000, 0.000000000000000000, 0.000000000000000000 ) ) ;
#491 = VERTEX_POINT ( 'NONE', #86 ) ;
#492 = DIRECTION ( 'NONE',  ( -1.000000000000000000, 0.000000000000000000, 5.782411586589358625E-17 ) ) ;
#493 = ADVANCED_FACE ( 'NONE', ( #103 ), #235, .F. ) ;
#494 = DIRECTION ( 'NONE',  ( 0.3162277660168377746, 0.9486832980505138790, 0.000000000000000000 ) ) ;
#495 = ORIENTED_EDGE ( 'NONE', *, *, #601, .T. ) ;
#496 = CARTESIAN_POINT ( 'NONE',  ( 7.500000000000000000, 0.000000000000000000, 7.499999999999999112 ) ) ;
#497 = EDGE_CURVE ( 'NONE', #389, #883, #371, .T. ) ;
#498 = VECTOR ( 'NONE', #263, 1000.000000000000000 ) ;
#499 = DIRECTION ( 'NONE',  ( 1.000000000000000000, 0.000000000000000000, 0.000000000000000000 ) ) ;
#500 = VERTEX_POINT ( 'NONE', #379 ) ;
#501 = DIRECTION ( 'NONE',  ( -1.000000000000000000, 0.000000000000000000, 0.000000000000000000 ) ) ;
#502 = CARTESIAN_POINT ( 'NONE',  ( 4.500000000000000000, 30.00000000000000000, 4.499999999999999112 ) ) ;
#503 = VERTEX_POINT ( 'NONE', #307 ) ;
#504 = LINE ( 'NONE', #706, #642 ) ;
#505 = AXIS2_PLACEMENT_3D ( 'NONE', #502, #139, #841 ) ;
#506 = PLANE ( 'NONE',  #635 ) ;
#507 = ORIENTED_EDGE ( 'NONE', *, *, #218, .F. ) ;
#508 = DIRECTION ( 'NONE',  ( 0.3162277660168379967, -0.9486832980505137680, 0.000000000000000000 ) ) ;
#509 = EDGE_CURVE ( 'NONE', #896, #875, #303, .T. ) ;
#510 = ORIENTED_EDGE ( 'NONE', *, *, #323, .F. ) ;
#511 = DIRECTION ( 'NONE',  ( 0.000000000000000000, 0.000000000000000000, -1.000000000000000000 ) ) ;
#512 = APPROVAL ( #583, 'UNSPECIFIED' ) ;
#513 = DIRECTION ( 'NONE',  ( -0.000000000000000000, -0.000000000000000000, -1.000000000000000000 ) ) ;
#514 = CARTESIAN_POINT ( 'NONE',  ( -2.000000000000000000, 11.00000000000000000, 4.499999999999999112 ) ) ;
#515 = AXIS2_PLACEMENT_3D ( 'NONE', #85, #792, #786 ) ;
#516 =( NAMED_UNIT ( * ) SI_UNIT ( $, .STERADIAN. ) SOLID_ANGLE_UNIT ( ) );
#517 = EDGE_CURVE ( 'NONE', #391, #559, #388, .T. ) ;
#518 = PLANE ( 'NONE',  #633 ) ;
#519 = DIRECTION ( 'NONE',  ( -0.000000000000000000, -1.000000000000000000, -0.000000000000000000 ) ) ;
#520 = LINE ( 'NONE', #374, #130 ) ;
#521 = DIRECTION ( 'NONE',  ( -1.000000000000000000, 0.000000000000000000, 0.000000000000000000 ) ) ;
#522 = VECTOR ( 'NONE', #124, 1000.000000000000000 ) ;
#523 = LINE ( 'NONE', #166, #253 ) ;
#524 = ORIENTED_EDGE ( 'NONE', *, *, #23, .T. ) ;
#525 = AXIS2_PLACEMENT_3D ( 'NONE', #117, #897, #609 ) ;
#526 = PERSON_AND_ORGANIZATION ( #89, #477 ) ;
#527 = LINE ( 'NONE', #863, #39 ) ;
#528 = FACE_OUTER_BOUND ( 'NONE', #648, .T. ) ;
#529 = ORIENTED_EDGE ( 'NONE', *, *, #326, .T. ) ;
#530 = VECTOR ( 'NONE', #362, 1000.000000000000000 ) ;
#531 = DIRECTION ( 'NONE',  ( 1.000000000000000000, -0.000000000000000000, -5.782411586589358625E-17 ) ) ;
#532 = EDGE_CURVE ( 'NONE', #896, #389, #832, .T. ) ;
#533 = ORIENTED_EDGE ( 'NONE', *, *, #100, .T. ) ;
#534 = VERTEX_POINT ( 'NONE', #241 ) ;
#535 = UNCERTAINTY_MEASURE_WITH_UNIT (LENGTH_MEASURE( 1.000000000000000082E-05 ), #730, 'distance_accuracy_value', 'NONE');
#536 = ORIENTED_EDGE ( 'NONE', *, *, #69, .F. ) ;
#537 = CARTESIAN_POINT ( 'NONE',  ( -7.499999999999999112, 30.00000000000000000, -14.40105817143579792 ) ) ;
#538 = CIRCLE ( 'NONE', #197, 2.000000000000000000 ) ;
#539 = LINE ( 'NONE', #63, #498 ) ;
#540 = EDGE_LOOP ( 'NONE', ( #464, #487, #600, #776, #463, #768, #254, #902 ) ) ;
#541 = DATE_TIME_ROLE ( 'classification_date' ) ;
#542 = AXIS2_PLACEMENT_3D ( 'NONE', #743, #51, #686 ) ;
#543 = PLANE ( 'NONE',  #542 ) ;
#544 = ORIENTED_EDGE ( 'NONE', *, *, #712, .T. ) ;
#545 = FACE_OUTER_BOUND ( 'NONE', #687, .T. ) ;
#546 = EDGE_CURVE ( 'NONE', #37, #466, #164, .T. ) ;
#547 = VERTEX_POINT ( 'NONE', #165 ) ;
#548 = FACE_OUTER_BOUND ( 'NONE', #611, .T. ) ;
#549 = ORIENTED_EDGE ( 'NONE', *, *, #425, .T. ) ;
#550 = EDGE_CURVE ( 'NONE', #491, #83, #527, .T. ) ;
#551 = CARTESIAN_POINT ( 'NONE',  ( 7.499999999999995559, 30.00000000000000000, -14.40105817143579792 ) ) ;
#552 = ORIENTED_EDGE ( 'NONE', *, *, #725, .T. ) ;
#553 = COORDINATED_UNIVERSAL_TIME_OFFSET ( 9, 0, .AHEAD. ) ;
#554 = CARTESIAN_POINT ( 'NONE',  ( 8.327284562965771150E-16, 34.49999999999999289, 14.40105817143579614 ) ) ;
#555 = ORIENTED_EDGE ( 'NONE', *, *, #684, .T. ) ;
#556 = CARTESIAN_POINT ( 'NONE',  ( -6.000000000000000000, 34.49999999999999289, 7.500000000000000000 ) ) ;
#557 = AXIS2_PLACEMENT_3D ( 'NONE', #319, #605, #659 ) ;
#558 = CARTESIAN_POINT ( 'NONE',  ( -4.500000000000000000, 34.49999999999999289, -14.40105817143579792 ) ) ;
#559 = VERTEX_POINT ( 'NONE', #36 ) ;
#560 = VECTOR ( 'NONE', #852, 1000.000000000000000 ) ;
#561 = PLANE ( 'NONE',  #785 ) ;
#562 = CARTESIAN_POINT ( 'NONE',  ( -5.999999999999998224, 34.49999999999999289, -4.499999999999997335 ) ) ;
#563 = ORIENTED_EDGE ( 'NONE', *, *, #284, .F. ) ;
#564 = EDGE_CURVE ( 'NONE', #676, #245, #318, .T. ) ;
#565 = CARTESIAN_POINT ( 'NONE',  ( 0.000000000000000000, 11.00000000000000000, 10.15685424949237969 ) ) ;
#566 = LOCAL_TIME ( 18, 46, 30.00000000000000000, #246 ) ;
#567 = FACE_OUTER_BOUND ( 'NONE', #132, .T. ) ;
#568 = EDGE_LOOP ( 'NONE', ( #824, #123 ) ) ;
#569 = CARTESIAN_POINT ( 'NONE',  ( 4.499999999999998224, 34.49999999999999289, -14.40105817143579792 ) ) ;
#570 = VECTOR ( 'NONE', #114, 1000.000000000000000 ) ;
#571 = CARTESIAN_POINT ( 'NONE',  ( -4.499999999999999112, 0.000000000000000000, 4.499999999999999112 ) ) ;
#572 = EDGE_LOOP ( 'NONE', ( #685, #61, #436, #115 ) ) ;
#573 = CYLINDRICAL_SURFACE ( 'NONE', #186, 4.499999999999999112 ) ;
#574 = CIRCLE ( 'NONE', #225, 4.499999999999999112 ) ;
#575 = ADVANCED_FACE ( 'NONE', ( #227 ), #790, .T. ) ;
#576 = CARTESIAN_POINT ( 'NONE',  ( -6.000000000000000000, 34.49999999999999289, -7.499999999999998224 ) ) ;
#577 = VERTEX_POINT ( 'NONE', #679 ) ;
#578 = DIRECTION ( 'NONE',  ( -0.000000000000000000, -0.000000000000000000, -1.000000000000000000 ) ) ;
#579 = ADVANCED_FACE ( 'NONE', ( #472 ), #543, .F. ) ;
#580 = COORDINATED_UNIVERSAL_TIME_OFFSET ( 9, 0, .AHEAD. ) ;
#581 = ORIENTED_EDGE ( 'NONE', *, *, #183, .T. ) ;
#582 = DIRECTION ( 'NONE',  ( -1.000000000000000000, 0.000000000000000000, 0.000000000000000000 ) ) ;
#583 = APPROVAL_STATUS ( 'not_yet_approved' ) ;
#584 = CARTESIAN_POINT ( 'NONE',  ( 4.336808689942017736E-16, 34.49999999999999289, 7.500000000000000000 ) ) ;
#585 = LINE ( 'NONE', #179, #702 ) ;
#586 = VECTOR ( 'NONE', #224, 999.9999999999998863 ) ;
#587 = EDGE_CURVE ( 'NONE', #34, #559, #107, .T. ) ;
#588 = CARTESIAN_POINT ( 'NONE',  ( -4.499999999999998224, 34.49999999999999289, 14.40105817143579614 ) ) ;
#589 = LINE ( 'NONE', #873, #655 ) ;
#590 = VECTOR ( 'NONE', #210, 1000.000000000000000 ) ;
#591 = CYLINDRICAL_SURFACE ( 'NONE', #341, 4.499999999999999112 ) ;
#592 = DIRECTION ( 'NONE',  ( 0.000000000000000000, 0.000000000000000000, -1.000000000000000000 ) ) ;
#593 = CARTESIAN_POINT ( 'NONE',  ( 7.500000000000000000, 0.000000000000000000, 7.499999999999999112 ) ) ;
#594 = EDGE_CURVE ( 'NONE', #828, #676, #817, .T. ) ;
#595 = ORIENTED_EDGE ( 'NONE', *, *, #398, .F. ) ;
#596 = CARTESIAN_POINT ( 'NONE',  ( 5.999999999999996447, 34.49999999999999289, 4.499999999999997335 ) ) ;
#597 = VECTOR ( 'NONE', #437, 1000.000000000000000 ) ;
#598 = VERTEX_POINT ( 'NONE', #414 ) ;
#599 = CARTESIAN_POINT ( 'NONE',  ( 7.500000000000000000, 30.00000000000000000, 14.40105817143579614 ) ) ;
#600 = ORIENTED_EDGE ( 'NONE', *, *, #669, .F. ) ;
#601 = EDGE_CURVE ( 'NONE', #883, #875, #705, .T. ) ;
#602 = PERSON_AND_ORGANIZATION_ROLE ( 'classification_officer' ) ;
#603 = LINE ( 'NONE', #194, #894 ) ;
#604 = ORIENTED_EDGE ( 'NONE', *, *, #750, .F. ) ;
#605 = DIRECTION ( 'NONE',  ( 0.000000000000000000, 0.000000000000000000, 1.000000000000000000 ) ) ;
#606 = EDGE_CURVE ( 'NONE', #820, #704, #122, .T. ) ;
#607 = ORIENTED_EDGE ( 'NONE', *, *, #509, .F. ) ;
#608 = CALENDAR_DATE ( 2026, 18, 6 ) ;
#609 = DIRECTION ( 'NONE',  ( -1.000000000000000000, 0.000000000000000000, 0.000000000000000000 ) ) ;
#610 = DIRECTION ( 'NONE',  ( -0.000000000000000000, -1.000000000000000000, -0.000000000000000000 ) ) ;
#611 = EDGE_LOOP ( 'NONE', ( #771, #221, #30, #43, #181, #428, #385, #144, #714, #397, #432, #402 ) ) ;
#612 = APPROVAL ( #322, 'UNSPECIFIED' ) ;
#613 = LINE ( 'NONE', #887, #664 ) ;
#614 = EDGE_LOOP ( 'NONE', ( #549, #172, #674, #756, #799, #136, #58, #193, #167, #681, #71, #8 ) ) ;
#615 = EDGE_CURVE ( 'NONE', #333, #273, #877, .T. ) ;
#616 = DIRECTION ( 'NONE',  ( 0.000000000000000000, -0.000000000000000000, 1.000000000000000000 ) ) ;
#617 = VERTEX_POINT ( 'NONE', #184 ) ;
#618 = EDGE_CURVE ( 'NONE', #245, #387, #410, .T. ) ;
#619 = DIRECTION ( 'NONE',  ( -1.000000000000000000, 0.000000000000000000, 0.000000000000000000 ) ) ;
#620 = VERTEX_POINT ( 'NONE', #189 ) ;
#621 = LINE ( 'NONE', #346, #270 ) ;
#622 = EDGE_LOOP ( 'NONE', ( #670, #208, #457, #453 ) ) ;
#623 = CIRCLE ( 'NONE', #416, 2.000000000000000000 ) ;
#624 = DIRECTION ( 'NONE',  ( -0.000000000000000000, -0.000000000000000000, -1.000000000000000000 ) ) ;
#625 = ORIENTED_EDGE ( 'NONE', *, *, #355, .T. ) ;
#626 = PLANE ( 'NONE',  #287 ) ;
#627 = EDGE_CURVE ( 'NONE', #288, #617, #809, .T. ) ;
#628 = FACE_OUTER_BOUND ( 'NONE', #540, .T. ) ;
#629 = EDGE_LOOP ( 'NONE', ( #381, #75, #510, #822, #291, #812, #108, #783 ) ) ;
#630 = FACE_OUTER_BOUND ( 'NONE', #282, .T. ) ;
#631 = CARTESIAN_POINT ( 'NONE',  ( -4.499999999999999112, 30.00000000000000000, 4.499999999999999112 ) ) ;
#632 = VERTEX_POINT ( 'NONE', #339 ) ;
#633 = AXIS2_PLACEMENT_3D ( 'NONE', #867, #32, #787 ) ;
#634 = FACE_OUTER_BOUND ( 'NONE', #419, .T. ) ;
#635 = AXIS2_PLACEMENT_3D ( 'NONE', #207, #343, #494 ) ;
#636 = DIRECTION ( 'NONE',  ( 1.000000000000000000, -0.000000000000000000, -5.782411586589359857E-17 ) ) ;
#637 = VERTEX_POINT ( 'NONE', #891 ) ;
#638 = DIRECTION ( 'NONE',  ( 1.000000000000000000, -0.000000000000000000, -5.782411586589359857E-17 ) ) ;
#639 = DIRECTION ( 'NONE',  ( 0.3162277660168381077, -0.9486832980505137680, 0.000000000000000000 ) ) ;
#640 = ORIENTED_EDGE ( 'NONE', *, *, #615, .F. ) ;
#641 = LINE ( 'NONE', #79, #435 ) ;
#642 = VECTOR ( 'NONE', #133, 1000.000000000000000 ) ;
#643 = ADVANCED_FACE ( 'NONE', ( #757, #478 ), #248, .F. ) ;
#644 = LINE ( 'NONE', #558, #590 ) ;
#645 = VERTEX_POINT ( 'NONE', #403 ) ;
#646 = CARTESIAN_POINT ( 'NONE',  ( -7.499999999999999112, 0.000000000000000000, -7.499999999999998224 ) ) ;
#647 = CARTESIAN_POINT ( 'NONE',  ( -8.327284562965773122E-16, 34.49999999999999289, -14.40105817143579792 ) ) ;
#648 = EDGE_LOOP ( 'NONE', ( #52, #482, #808, #321 ) ) ;
#649 = CARTESIAN_POINT ( 'NONE',  ( 4.499999999999992895, 24.99999999999999645, 4.499999999999995559 ) ) ;
#650 = CC_DESIGN_PERSON_AND_ORGANIZATION_ASSIGNMENT ( #338, #476, ( #789 ) ) ;
#651 = ADVANCED_FACE ( 'NONE', ( #548 ), #324, .F. ) ;
#652 = CARTESIAN_POINT ( 'NONE',  ( 7.500000000000000000, 30.00000000000000000, 7.499999999999999112 ) ) ;
#653 = CARTESIAN_POINT ( 'NONE',  ( -2.602085213965213107E-16, 34.49999999999999289, -4.499999999999999112 ) ) ;
#654 = DIRECTION ( 'NONE',  ( -0.000000000000000000, -1.000000000000000000, -0.000000000000000000 ) ) ;
#655 = VECTOR ( 'NONE', #654, 1000.000000000000000 ) ;
#656 = APPROVAL_DATE_TIME ( #91, #512 ) ;
#657 = EDGE_CURVE ( 'NONE', #466, #37, #720, .T. ) ;
#658 = CARTESIAN_POINT ( 'NONE',  ( -8.327284562965773122E-16, 34.49999999999999289, -14.40105817143579792 ) ) ;
#659 = DIRECTION ( 'NONE',  ( 1.000000000000000000, 0.000000000000000000, 0.000000000000000000 ) ) ;
#660 = VECTOR ( 'NONE', #177, 1000.000000000000000 ) ;
#661 = DIRECTION ( 'NONE',  ( 5.782411586589359857E-17, -0.000000000000000000, 1.000000000000000000 ) ) ;
#662 = CARTESIAN_POINT ( 'NONE',  ( -7.499999999999999112, 24.99999999999999645, 4.499999999999996447 ) ) ;
#663 = DIRECTION ( 'NONE',  ( -0.000000000000000000, -1.000000000000000000, -0.000000000000000000 ) ) ;
#664 = VECTOR ( 'NONE', #359, 1000.000000000000000 ) ;
#665 = ORIENTED_EDGE ( 'NONE', *, *, #146, .T. ) ;
#666 = PERSON_AND_ORGANIZATION ( #89, #477 ) ;
#667 = CARTESIAN_POINT ( 'NONE',  ( -7.499999999999999112, 24.99999999999999645, -4.499999999999999112 ) ) ;
#668 = CARTESIAN_POINT ( 'NONE',  ( 5.999999999999995559, 34.49999999999999289, -14.40105817143579792 ) ) ;
#669 = EDGE_CURVE ( 'NONE', #632, #534, #603, .T. ) ;
#670 = ORIENTED_EDGE ( 'NONE', *, *, #266, .F. ) ;
#671 = ADVANCED_FACE ( 'NONE', ( #57 ), #267, .T. ) ;
#672 = CARTESIAN_POINT ( 'NONE',  ( -7.499999999999999112, 24.99999999999999645, -4.499999999999999112 ) ) ;
#673 = VECTOR ( 'NONE', #728, 1000.000000000000000 ) ;
#674 = ORIENTED_EDGE ( 'NONE', *, *, #627, .F. ) ;
#675 = DIRECTION ( 'NONE',  ( 0.000000000000000000, 0.000000000000000000, -1.000000000000000000 ) ) ;
#676 = VERTEX_POINT ( 'NONE', #198 ) ;
#677 = AXIS2_PLACEMENT_3D ( 'NONE', #658, #95, #731 ) ;
#678 = DATE_AND_TIME ( #255, #566 ) ;
#679 = CARTESIAN_POINT ( 'NONE',  ( -6.000000000000000000, 34.49999999999999289, 4.499999999999997335 ) ) ;
#680 = DIRECTION ( 'NONE',  ( 1.000000000000000000, 0.000000000000000000, 0.000000000000000000 ) ) ;
#681 = ORIENTED_EDGE ( 'NONE', *, *, #218, .T. ) ;
#682 = DIRECTION ( 'NONE',  ( -1.000000000000000000, 0.000000000000000000, 0.000000000000000000 ) ) ;
#683 = CARTESIAN_POINT ( 'NONE',  ( 7.500000000000000000, 30.00000000000000000, 7.499999999999999112 ) ) ;
#684 = EDGE_CURVE ( 'NONE', #83, #120, #762, .T. ) ;
#685 = ORIENTED_EDGE ( 'NONE', *, *, #497, .F. ) ;
#686 = DIRECTION ( 'NONE',  ( 0.000000000000000000, -0.000000000000000000, 1.000000000000000000 ) ) ;
#687 = EDGE_LOOP ( 'NONE', ( #555, #101, #354, #250 ) ) ;
#688 = DIRECTION ( 'NONE',  ( 0.000000000000000000, 0.000000000000000000, -1.000000000000000000 ) ) ;
#689 = ORIENTED_EDGE ( 'NONE', *, *, #657, .T. ) ;
#690 = AXIS2_PLACEMENT_3D ( 'NONE', #334, #256, #619 ) ;
#691 = DIRECTION ( 'NONE',  ( 5.782411586589358625E-17, 0.000000000000000000, 1.000000000000000000 ) ) ;
#692 = ORIENTED_EDGE ( 'NONE', *, *, #81, .T. ) ;
#693 = CARTESIAN_POINT ( 'NONE',  ( -4.499999999999999112, 24.99999999999999645, 4.499999999999999112 ) ) ;
#694 = EDGE_CURVE ( 'NONE', #373, #503, #613, .T. ) ;
#695 =( GEOMETRIC_REPRESENTATION_CONTEXT ( 3 ) GLOBAL_UNCERTAINTY_ASSIGNED_CONTEXT ( ( #535 ) ) GLOBAL_UNIT_ASSIGNED_CONTEXT ( ( #730, #853, #516 ) ) REPRESENTATION_CONTEXT ( 'NONE', 'WORKASPACE' ) );
#696 = CARTESIAN_POINT ( 'NONE',  ( -5.999999999999999112, 34.49999999999999289, 14.40105817143579614 ) ) ;
#697 = ORIENTED_EDGE ( 'NONE', *, *, #484, .T. ) ;
#698 = DIRECTION ( 'NONE',  ( -1.000000000000000000, 0.000000000000000000, 0.000000000000000000 ) ) ;
#699 = PLANE ( 'NONE',  #11 ) ;
#700 = EDGE_LOOP ( 'NONE', ( #223, #604 ) ) ;
#701 = CYLINDRICAL_SURFACE ( 'NONE', #761, 2.000000000000000000 ) ;
#702 = VECTOR ( 'NONE', #860, 1000.000000000000114 ) ;
#703 = DIRECTION ( 'NONE',  ( -0.000000000000000000, 0.000000000000000000, -1.000000000000000000 ) ) ;
#704 = VERTEX_POINT ( 'NONE', #576 ) ;
#705 = CIRCLE ( 'NONE', #690, 4.499999999999999112 ) ;
#706 = CARTESIAN_POINT ( 'NONE',  ( -7.499999999999999112, 24.99999999999999645, 4.499999999999996447 ) ) ;
#707 = LOCAL_TIME ( 18, 46, 30.00000000000000000, #234 ) ;
#708 = DIRECTION ( 'NONE',  ( 0.000000000000000000, 0.000000000000000000, 1.000000000000000000 ) ) ;
#709 = ORIENTED_EDGE ( 'NONE', *, *, #23, .F. ) ;
#710 = EDGE_CURVE ( 'NONE', #491, #337, #767, .T. ) ;
#711 = LINE ( 'NONE', #292, #80 ) ;
#712 = EDGE_CURVE ( 'NONE', #620, #704, #357, .T. ) ;
#713 = CARTESIAN_POINT ( 'NONE',  ( -7.499999999999999112, 30.00000000000000000, 4.499999999999996447 ) ) ;
#714 = ORIENTED_EDGE ( 'NONE', *, *, #175, .F. ) ;
#715 = CARTESIAN_POINT ( 'NONE',  ( -7.499999999999999112, 24.99999999999999645, -4.499999999999999112 ) ) ;
#716 = CIRCLE ( 'NONE', #238, 6.000000000000000000 ) ;
#717 = CARTESIAN_POINT ( 'NONE',  ( -2.000000000000000000, 11.00000000000000000, 10.15685424949237969 ) ) ;
#718 = ORIENTED_EDGE ( 'NONE', *, *, #745, .T. ) ;
#719 = DIRECTION ( 'NONE',  ( -5.782411586589359857E-17, 0.000000000000000000, -1.000000000000000000 ) ) ;
#720 = CIRCLE ( 'NONE', #399, 4.499999999999999112 ) ;
#721 = ADVANCED_FACE ( 'NONE', ( #782 ), #901, .F. ) ;
#722 = DATE_TIME_ROLE ( 'creation_date' ) ;
#723 = DIRECTION ( 'NONE',  ( -1.000000000000000000, 0.000000000000000000, 0.000000000000000000 ) ) ;
#724 = DIRECTION ( 'NONE',  ( -5.782411586589359857E-17, 0.000000000000000000, -1.000000000000000000 ) ) ;
#725 = EDGE_CURVE ( 'NONE', #387, #469, #833, .T. ) ;
#726 = CALENDAR_DATE ( 2026, 18, 6 ) ;
#727 = DIRECTION ( 'NONE',  ( 1.000000000000000000, 0.000000000000000000, 0.000000000000000000 ) ) ;
#728 = DIRECTION ( 'NONE',  ( 5.782411586589359857E-17, -0.000000000000000000, 1.000000000000000000 ) ) ;
#729 = VECTOR ( 'NONE', #467, 1000.000000000000000 ) ;
#730 =( LENGTH_UNIT ( ) NAMED_UNIT ( * ) SI_UNIT ( .MILLI., .METRE. ) );
#731 = DIRECTION ( 'NONE',  ( 1.000000000000000000, 0.000000000000000000, 0.000000000000000000 ) ) ;
#732 = DIRECTION ( 'NONE',  ( -5.782411586589358625E-17, 0.000000000000000000, -1.000000000000000000 ) ) ;
#733 = ORIENTED_EDGE ( 'NONE', *, *, #119, .T. ) ;
#734 = FACE_OUTER_BOUND ( 'NONE', #834, .T. ) ;
#735 = CARTESIAN_POINT ( 'NONE',  ( -8.327284562965773122E-16, 34.49999999999999289, -14.40105817143579792 ) ) ;
#736 = ORIENTED_EDGE ( 'NONE', *, *, #895, .T. ) ;
#737 = ORIENTED_EDGE ( 'NONE', *, *, #64, .T. ) ;
#738 = ADVANCED_FACE ( 'NONE', ( #567 ), #272, .T. ) ;
#739 = FACE_OUTER_BOUND ( 'NONE', #316, .T. ) ;
#740 = ORIENTED_EDGE ( 'NONE', *, *, #398, .T. ) ;
#741 = LINE ( 'NONE', #864, #406 ) ;
#742 = ORIENTED_EDGE ( 'NONE', *, *, #831, .F. ) ;
#743 = CARTESIAN_POINT ( 'NONE',  ( 0.000000000000000000, 0.000000000000000000, 0.000000000000000000 ) ) ;
#744 = DIRECTION ( 'NONE',  ( -0.9486832980505137680, -0.3162277660168381077, 5.485677294651097051E-17 ) ) ;
#745 = EDGE_CURVE ( 'NONE', #637, #466, #644, .T. ) ;
#746 = ORIENTED_EDGE ( 'NONE', *, *, #517, .T. ) ;
#747 = VECTOR ( 'NONE', #400, 1000.000000000000000 ) ;
#748 = CARTESIAN_POINT ( 'NONE',  ( 4.336808689942017736E-16, 34.49999999999999289, 7.500000000000000000 ) ) ;
#749 = ORIENTED_EDGE ( 'NONE', *, *, #440, .T. ) ;
#750 = EDGE_CURVE ( 'NONE', #386, #878, #623, .T. ) ;
#751 = FACE_BOUND ( 'NONE', #106, .T. ) ;
#752 = AXIS2_PLACEMENT_3D ( 'NONE', #554, #47, #330 ) ;
#753 = VERTEX_POINT ( 'NONE', #143 ) ;
#754 = CARTESIAN_POINT ( 'NONE',  ( 4.500000000000000000, 0.000000000000000000, 4.499999999999999112 ) ) ;
#755 = FACE_OUTER_BOUND ( 'NONE', #795, .T. ) ;
#756 = ORIENTED_EDGE ( 'NONE', *, *, #175, .T. ) ;
#757 = FACE_BOUND ( 'NONE', #568, .T. ) ;
#758 = ORIENTED_EDGE ( 'NONE', *, *, #119, .F. ) ;
#759 = AXIS2_PLACEMENT_3D ( 'NONE', #806, #18, #158 ) ;
#760 = DIRECTION ( 'NONE',  ( 0.000000000000000000, -0.000000000000000000, 1.000000000000000000 ) ) ;
#761 = AXIS2_PLACEMENT_3D ( 'NONE', #565, #907, #582 ) ;
#762 = LINE ( 'NONE', #60, #458 ) ;
#763 = ORIENTED_EDGE ( 'NONE', *, *, #266, .T. ) ;
#764 = LINE ( 'NONE', #489, #870 ) ;
#765 = EDGE_CURVE ( 'NONE', #480, #34, #909, .T. ) ;
#766 = CIRCLE ( 'NONE', #231, 4.499999999999999112 ) ;
#767 = LINE ( 'NONE', #836, #169 ) ;
#768 = ORIENTED_EDGE ( 'NONE', *, *, #355, .F. ) ;
#769 = DIRECTION ( 'NONE',  ( -5.142325439945996840E-17, 0.000000000000000000, -1.000000000000000000 ) ) ;
#770 = CARTESIAN_POINT ( 'NONE',  ( -7.499999999999999112, 30.00000000000000000, 7.500000000000000000 ) ) ;
#771 = ORIENTED_EDGE ( 'NONE', *, *, #214, .F. ) ;
#772 = CC_DESIGN_DATE_AND_TIME_ASSIGNMENT ( #678, #541, ( #445 ) ) ;
#773 = DIRECTION ( 'NONE',  ( 0.000000000000000000, 0.000000000000000000, -1.000000000000000000 ) ) ;
#774 = VECTOR ( 'NONE', #519, 1000.000000000000000 ) ;
#775 = CARTESIAN_POINT ( 'NONE',  ( -7.499999999999999112, 30.00000000000000000, 4.499999999999996447 ) ) ;
#776 = ORIENTED_EDGE ( 'NONE', *, *, #187, .T. ) ;
#777 = CYLINDRICAL_SURFACE ( 'NONE', #82, 6.000000000000000000 ) ;
#778 = EDGE_CURVE ( 'NONE', #389, #896, #766, .T. ) ;
#779 = CARTESIAN_POINT ( 'NONE',  ( 8.327284562965771150E-16, 34.49999999999999289, 14.40105817143579614 ) ) ;
#780 = ORIENTED_EDGE ( 'NONE', *, *, #69, .T. ) ;
#781 = DIRECTION ( 'NONE',  ( -1.000000000000000000, 0.000000000000000000, 0.000000000000000000 ) ) ;
#782 = FACE_OUTER_BOUND ( 'NONE', #572, .T. ) ;
#783 = ORIENTED_EDGE ( 'NONE', *, *, #848, .T. ) ;
#784 = CARTESIAN_POINT ( 'NONE',  ( 7.499999999999999112, 13.00000000000000000, 4.499999999999998224 ) ) ;
#785 = AXIS2_PLACEMENT_3D ( 'NONE', #683, #835, #417 ) ;
#786 = DIRECTION ( 'NONE',  ( 1.000000000000000000, 0.000000000000000000, 0.000000000000000000 ) ) ;
#787 = DIRECTION ( 'NONE',  ( 1.000000000000000000, 0.000000000000000000, -0.000000000000000000 ) ) ;
#788 = VECTOR ( 'NONE', #442, 1000.000000000000000 ) ;
#789 = PRODUCT_DEFINITION_FORMATION_WITH_SPECIFIED_SOURCE ( 'ANY', '', #347, .NOT_KNOWN. ) ;
#790 = CYLINDRICAL_SURFACE ( 'NONE', #365, 2.000000000000000000 ) ;
#791 = CARTESIAN_POINT ( 'NONE',  ( 2.602085213965211135E-16, 34.49999999999999289, 4.499999999999997335 ) ) ;
#792 = DIRECTION ( 'NONE',  ( 0.000000000000000000, 0.000000000000000000, 1.000000000000000000 ) ) ;
#793 = DIRECTION ( 'NONE',  ( 5.782411586589359857E-17, -0.000000000000000000, 1.000000000000000000 ) ) ;
#794 = DIRECTION ( 'NONE',  ( 0.000000000000000000, 0.000000000000000000, 1.000000000000000000 ) ) ;
#795 = EDGE_LOOP ( 'NONE', ( #313, #736, #854, #595 ) ) ;
#796 = AXIS2_PLACEMENT_3D ( 'NONE', #258, #688, #698 ) ;
#797 = DIRECTION ( 'NONE',  ( -5.782411586589359857E-17, 0.000000000000000000, -1.000000000000000000 ) ) ;
#798 = ORIENTED_EDGE ( 'NONE', *, *, #550, .T. ) ;
#799 = ORIENTED_EDGE ( 'NONE', *, *, #684, .F. ) ;
#800 = EDGE_CURVE ( 'NONE', #828, #547, #147, .T. ) ;
#801 = AXIS2_PLACEMENT_3D ( 'NONE', #455, #511, #521 ) ;
#802 = ORIENTED_EDGE ( 'NONE', *, *, #448, .F. ) ;
#803 = DIRECTION ( 'NONE',  ( -5.782411586589358625E-17, 0.000000000000000000, -1.000000000000000000 ) ) ;
#804 = DIRECTION ( 'NONE',  ( 0.000000000000000000, -0.000000000000000000, -1.000000000000000000 ) ) ;
#805 = ORIENTED_EDGE ( 'NONE', *, *, #331, .T. ) ;
#806 = CARTESIAN_POINT ( 'NONE',  ( 15.75000000000000000, 5.250000000000001776, 14.40105817143579436 ) ) ;
#807 = CC_DESIGN_APPROVAL ( #512, ( #789 ) ) ;
#808 = ORIENTED_EDGE ( 'NONE', *, *, #15, .T. ) ;
#809 = LINE ( 'NONE', #394, #125 ) ;
#810 = ORIENTED_EDGE ( 'NONE', *, *, #594, .T. ) ;
#811 = CARTESIAN_POINT ( 'NONE',  ( 7.499999999999999112, 12.99999999999999822, -4.500000000000000000 ) ) ;
#812 = ORIENTED_EDGE ( 'NONE', *, *, #90, .F. ) ;
#813 = CARTESIAN_POINT ( 'NONE',  ( 0.000000000000000000, 11.00000000000000000, 10.15685424949237969 ) ) ;
#814 = LINE ( 'NONE', #185, #570 ) ;
#815 = ORIENTED_EDGE ( 'NONE', *, *, #156, .T. ) ;
#816 = AXIS2_PLACEMENT_3D ( 'NONE', #653, #157, #871 ) ;
#817 = LINE ( 'NONE', #537, #747 ) ;
#818 = LINE ( 'NONE', #59, #729 ) ;
#819 = LOCAL_TIME ( 18, 46, 30.00000000000000000, #226 ) ;
#820 = VERTEX_POINT ( 'NONE', #562 ) ;
#821 = CARTESIAN_POINT ( 'NONE',  ( 7.500000000000000000, 30.00000000000000000, 7.499999999999999112 ) ) ;
#822 = ORIENTED_EDGE ( 'NONE', *, *, #694, .F. ) ;
#823 = CARTESIAN_POINT ( 'NONE',  ( 4.500000000000000000, 30.00000000000000000, 4.499999999999999112 ) ) ;
#824 = ORIENTED_EDGE ( 'NONE', *, *, #369, .F. ) ;
#825 = SHAPE_DEFINITION_REPRESENTATION ( #134, #413 ) ;
#826 = ADVANCED_FACE ( 'NONE', ( #286 ), #699, .F. ) ;
#827 = DIRECTION ( 'NONE',  ( -5.782411586589357392E-17, 0.000000000000000000, -1.000000000000000000 ) ) ;
#828 = VERTEX_POINT ( 'NONE', #713 ) ;
#829 = VECTOR ( 'NONE', #719, 1000.000000000000000 ) ;
#830 = DIRECTION ( 'NONE',  ( 0.000000000000000000, 1.000000000000000000, 0.000000000000000000 ) ) ;
#831 = EDGE_CURVE ( 'NONE', #4, #878, #277, .T. ) ;
#832 = CIRCLE ( 'NONE', #816, 4.499999999999999112 ) ;
#833 = LINE ( 'NONE', #905, #98 ) ;
#834 = EDGE_LOOP ( 'NONE', ( #367, #697, #906, #127 ) ) ;
#835 = DIRECTION ( 'NONE',  ( -5.782411586589357392E-17, 0.000000000000000000, -1.000000000000000000 ) ) ;
#836 = CARTESIAN_POINT ( 'NONE',  ( -7.499999999999999112, 24.99999999999999645, -4.499999999999999112 ) ) ;
#837 = ORIENTED_EDGE ( 'NONE', *, *, #10, .T. ) ;
#838 = DIRECTION ( 'NONE',  ( 1.000000000000000000, -0.000000000000000000, 0.000000000000000000 ) ) ;
#839 = EDGE_CURVE ( 'NONE', #335, #333, #353, .T. ) ;
#840 = CC_DESIGN_SECURITY_CLASSIFICATION ( #445, ( #789 ) ) ;
#841 = DIRECTION ( 'NONE',  ( 0.000000000000000000, 0.000000000000000000, 1.000000000000000000 ) ) ;
#842 = ORIENTED_EDGE ( 'NONE', *, *, #484, .F. ) ;
#843 = CARTESIAN_POINT ( 'NONE',  ( -15.74999999999999289, 5.249999999999994671, -7.499999999999997335 ) ) ;
#844 = VECTOR ( 'NONE', #868, 1000.000000000000000 ) ;
#845 = FACE_OUTER_BOUND ( 'NONE', #55, .T. ) ;
#846 = ORIENTED_EDGE ( 'NONE', *, *, #546, .T. ) ;
#847 = CARTESIAN_POINT ( 'NONE',  ( -7.499999999999999112, 30.00000000000000000, 7.500000000000000000 ) ) ;
#848 = EDGE_CURVE ( 'NONE', #617, #333, #77, .T. ) ;
#849 = VECTOR ( 'NONE', #220, 1000.000000000000000 ) ;
#850 = DIRECTION ( 'NONE',  ( 0.000000000000000000, -0.000000000000000000, -1.000000000000000000 ) ) ;
#851 = ORIENTED_EDGE ( 'NONE', *, *, #800, .F. ) ;
#852 = DIRECTION ( 'NONE',  ( -0.000000000000000000, -0.000000000000000000, 1.000000000000000000 ) ) ;
#853 =( NAMED_UNIT ( * ) PLANE_ANGLE_UNIT ( ) SI_UNIT ( $, .RADIAN. ) );
#854 = ORIENTED_EDGE ( 'NONE', *, *, #606, .T. ) ;
#855 = ADVANCED_FACE ( 'NONE', ( #845 ), #506, .F. ) ;
#856 = CARTESIAN_POINT ( 'NONE',  ( -5.999999999999996447, 34.49999999999999289, 7.500000000000000000 ) ) ;
#857 = APPROVAL_ROLE ( '' ) ;
#858 = DIRECTION ( 'NONE',  ( -1.000000000000000000, 0.000000000000000000, 0.000000000000000000 ) ) ;
#859 = VECTOR ( 'NONE', #14, 999.9999999999998863 ) ;
#860 = DIRECTION ( 'NONE',  ( 0.3162277660168380522, -0.9486832980505137680, -1.626146086005676092E-17 ) ) ;
#861 = CARTESIAN_POINT ( 'NONE',  ( -2.000000000000000000, 11.00000000000000000, -4.499999999999999112 ) ) ;
#862 = AXIS2_PLACEMENT_3D ( 'NONE', #770, #135, #70 ) ;
#863 = CARTESIAN_POINT ( 'NONE',  ( 4.500000000000000000, 30.00000000000000000, -4.499999999999999112 ) ) ;
#864 = CARTESIAN_POINT ( 'NONE',  ( 4.500000000000000000, 30.00000000000000000, 4.499999999999999112 ) ) ;
#865 = PERSON_AND_ORGANIZATION_ROLE ( 'creator' ) ;
#866 = ADVANCED_FACE ( 'NONE', ( #628 ), #203, .F. ) ;
#867 = CARTESIAN_POINT ( 'NONE',  ( 4.500000000000000000, 30.00000000000000000, -4.499999999999999112 ) ) ;
#868 = DIRECTION ( 'NONE',  ( 5.782411586589359857E-17, -0.000000000000000000, 1.000000000000000000 ) ) ;
#869 = ORIENTED_EDGE ( 'NONE', *, *, #440, .F. ) ;
#870 = VECTOR ( 'NONE', #900, 1000.000000000000000 ) ;
#871 = DIRECTION ( 'NONE',  ( 1.000000000000000000, 0.000000000000000000, 0.000000000000000000 ) ) ;
#872 = ORIENTED_EDGE ( 'NONE', *, *, #425, .F. ) ;
#873 = CARTESIAN_POINT ( 'NONE',  ( -4.499999999999999112, 30.00000000000000000, -4.499999999999999112 ) ) ;
#874 = VECTOR ( 'NONE', #154, 1000.000000000000000 ) ;
#875 = VERTEX_POINT ( 'NONE', #422 ) ;
#876 = PERSON_AND_ORGANIZATION ( #89, #477 ) ;
#877 = LINE ( 'NONE', #754, #660 ) ;
#878 = VERTEX_POINT ( 'NONE', #861 ) ;
#879 = VECTOR ( 'NONE', #302, 1000.000000000000114 ) ;
#880 = ORIENTED_EDGE ( 'NONE', *, *, #156, .F. ) ;
#881 = DIRECTION ( 'NONE',  ( -1.000000000000000000, 0.000000000000000000, 5.782411586589358625E-17 ) ) ;
#882 = EDGE_CURVE ( 'NONE', #469, #34, #370, .T. ) ;
#883 = VERTEX_POINT ( 'NONE', #94 ) ;
#884 = PLANE ( 'NONE',  #150 ) ;
#885 = EDGE_LOOP ( 'NONE', ( #709, #533, #268, #236 ) ) ;
#886 = CLOSED_SHELL ( 'NONE', ( #575, #493, #345, #651, #738, #579, #866, #228, #643, #205, #462, #420, #56, #671, #275, #721, #244, #438, #855, #908, #171, #412, #452, #826 ) ) ;
#887 = CARTESIAN_POINT ( 'NONE',  ( -7.499999999999999112, 0.000000000000000000, 7.500000000000000000 ) ) ;
#888 = EDGE_LOOP ( 'NONE', ( #749, #188, #102, #742 ) ) ;
#889 = FACE_OUTER_BOUND ( 'NONE', #140, .T. ) ;
#890 = ORIENTED_EDGE ( 'NONE', *, *, #606, .F. ) ;
#891 = CARTESIAN_POINT ( 'NONE',  ( -4.499999999999999112, 34.49999999999999289, 4.499999999999997335 ) ) ;
#892 = ORIENTED_EDGE ( 'NONE', *, *, #187, .F. ) ;
#893 = DIRECTION ( 'NONE',  ( 0.3162277660168381077, -0.9486832980505137680, 0.000000000000000000 ) ) ;
#894 = VECTOR ( 'NONE', #112, 1000.000000000000000 ) ;
#895 = EDGE_CURVE ( 'NONE', #534, #820, #168, .T. ) ;
#896 = VERTEX_POINT ( 'NONE', #294 ) ;
#897 = DIRECTION ( 'NONE',  ( -5.782411586589357392E-17, 0.000000000000000000, -1.000000000000000000 ) ) ;
#898 = ORIENTED_EDGE ( 'NONE', *, *, #546, .F. ) ;
#899 = EDGE_CURVE ( 'NONE', #83, #645, #520, .T. ) ;
#900 = DIRECTION ( 'NONE',  ( 0.000000000000000000, 1.000000000000000000, 0.000000000000000000 ) ) ;
#901 = CYLINDRICAL_SURFACE ( 'NONE', #262, 4.499999999999999112 ) ;
#902 = ORIENTED_EDGE ( 'NONE', *, *, #800, .T. ) ;
#903 = FACE_OUTER_BOUND ( 'NONE', #278, .T. ) ;
#904 = CC_DESIGN_DATE_AND_TIME_ASSIGNMENT ( #441, #722, ( #153 ) ) ;
#905 = CARTESIAN_POINT ( 'NONE',  ( 7.499999999999996447, 30.00000000000000000, 7.499999999999999112 ) ) ;
#906 = ORIENTED_EDGE ( 'NONE', *, *, #311, .T. ) ;
#907 = DIRECTION ( 'NONE',  ( -0.000000000000000000, -0.000000000000000000, -1.000000000000000000 ) ) ;
#908 = ADVANCED_FACE ( 'NONE', ( #734 ), #591, .F. ) ;
#909 = LINE ( 'NONE', #348, #219 ) ;
ENDSEC;
END-ISO-10303-21;
