ISO-10303-21;
HEADER;
FILE_DESCRIPTION (( 'STEP AP203' ),
    '1' );
FILE_NAME ('InnerRingBase.STEP',
    '2026-06-18T09:46:16',
    ( '' ),
    ( '' ),
    'SwSTEP 2.0',
    'SolidWorks 2026',
    '' );
FILE_SCHEMA (( 'CONFIG_CONTROL_DESIGN' ));
ENDSEC;

DATA;
#1 = EDGE_LOOP ( 'NONE', ( #248, #359, #225, #282 ) ) ;
#2 = CALENDAR_DATE ( 2026, 18, 6 ) ;
#3 = ADVANCED_FACE ( 'NONE', ( #92, #88 ), #313, .T. ) ;
#4 = ORIENTED_EDGE ( 'NONE', *, *, #304, .F. ) ;
#5 = CC_DESIGN_SECURITY_CLASSIFICATION ( #312, ( #93 ) ) ;
#6 = DATE_TIME_ROLE ( 'creation_date' ) ;
#7 = EDGE_CURVE ( 'NONE', #192, #172, #281, .T. ) ;
#8 = CARTESIAN_POINT ( 'NONE',  ( 7.499999999999999112, 10.00000000000000000, 7.500000000000000000 ) ) ;
#9 = APPROVAL_ROLE ( '' ) ;
#10 = DIRECTION ( 'NONE',  ( 0.000000000000000000, -0.000000000000000000, 1.000000000000000000 ) ) ;
#11 = ADVANCED_FACE ( 'NONE', ( #144 ), #199, .T. ) ;
#12 = APPROVAL_DATE_TIME ( #279, #87 ) ;
#13 = PLANE ( 'NONE',  #272 ) ;
#14 = VECTOR ( 'NONE', #85, 1000.000000000000000 ) ;
#15 = LOCAL_TIME ( 18, 46, 16.00000000000000000, #252 ) ;
#16 = CARTESIAN_POINT ( 'NONE',  ( -7.500000000000000888, 0.000000000000000000, -7.500000000000000000 ) ) ;
#17 = DIRECTION ( 'NONE',  ( 0.000000000000000000, 0.000000000000000000, -1.000000000000000000 ) ) ;
#18 = CARTESIAN_POINT ( 'NONE',  ( -7.500000000000000888, 0.000000000000000000, 7.500000000000000000 ) ) ;
#19 = AXIS2_PLACEMENT_3D ( 'NONE', #343, #47, #100 ) ;
#20 = ORGANIZATION ( 'UNSPECIFIED', 'UNSPECIFIED', '' ) ;
#21 = EDGE_CURVE ( 'NONE', #192, #34, #318, .T. ) ;
#22 = LINE ( 'NONE', #351, #14 ) ;
#23 = CARTESIAN_POINT ( 'NONE',  ( 7.499999999999999112, 0.000000000000000000, 7.500000000000000000 ) ) ;
#24 = DIRECTION ( 'NONE',  ( 0.000000000000000000, 1.000000000000000000, 0.000000000000000000 ) ) ;
#25 = PLANE ( 'NONE',  #328 ) ;
#26 = EDGE_LOOP ( 'NONE', ( #166, #283, #36, #121 ) ) ;
#27 = APPROVAL ( #141, 'UNSPECIFIED' ) ;
#28 = PERSON_AND_ORGANIZATION ( #55, #20 ) ;
#29 = EDGE_CURVE ( 'NONE', #256, #197, #293, .T. ) ;
#30 = PERSON_AND_ORGANIZATION ( #55, #20 ) ;
#31 = ORIENTED_EDGE ( 'NONE', *, *, #7, .F. ) ;
#32 = VECTOR ( 'NONE', #324, 1000.000000000000000 ) ;
#33 = ORIENTED_EDGE ( 'NONE', *, *, #353, .T. ) ;
#34 = VERTEX_POINT ( 'NONE', #241 ) ;
#35 = ADVANCED_FACE ( 'NONE', ( #266 ), #13, .F. ) ;
#36 = ORIENTED_EDGE ( 'NONE', *, *, #219, .F. ) ;
#37 = PERSON_AND_ORGANIZATION ( #55, #20 ) ;
#38 = DIRECTION ( 'NONE',  ( 0.000000000000000000, 1.000000000000000000, 0.000000000000000000 ) ) ;
#39 = CIRCLE ( 'NONE', #267, 29.25000000000000000 ) ;
#40 = COORDINATED_UNIVERSAL_TIME_OFFSET ( 9, 0, .AHEAD. ) ;
#41 = DIRECTION ( 'NONE',  ( -0.000000000000000000, -0.000000000000000000, 1.000000000000000000 ) ) ;
#42 = PERSON_AND_ORGANIZATION_ROLE ( 'classification_officer' ) ;
#43 = LINE ( 'NONE', #104, #360 ) ;
#44 = CARTESIAN_POINT ( 'NONE',  ( 0.000000000000000000, 10.00000000000000000, 32.25000000000000000 ) ) ;
#45 = AXIS2_PLACEMENT_3D ( 'NONE', #69, #320, #346 ) ;
#46 = LINE ( 'NONE', #8, #107 ) ;
#47 = DIRECTION ( 'NONE',  ( 0.000000000000000000, 1.000000000000000000, 0.000000000000000000 ) ) ;
#48 = CC_DESIGN_DATE_AND_TIME_ASSIGNMENT ( #170, #340, ( #312 ) ) ;
#49 = DIRECTION ( 'NONE',  ( -0.000000000000000000, 1.000000000000000000, -0.000000000000000000 ) ) ;
#50 = CARTESIAN_POINT ( 'NONE',  ( 0.000000000000000000, 0.000000000000000000, -32.25000000000000000 ) ) ;
#51 = DIRECTION ( 'NONE',  ( 0.000000000000000000, 0.000000000000000000, 1.000000000000000000 ) ) ;
#52 = DIRECTION ( 'NONE',  ( 1.000000000000000000, 0.000000000000000000, 0.000000000000000000 ) ) ;
#53 = ORIENTED_EDGE ( 'NONE', *, *, #327, .T. ) ;
#54 = VECTOR ( 'NONE', #289, 1000.000000000000000 ) ;
#55 = PERSON ( 'UNSPECIFIED', 'UNSPECIFIED', 'UNSPECIFIED', ('UNSPECIFIED'), ('UNSPECIFIED'), ('UNSPECIFIED') ) ;
#56 = APPROVAL_PERSON_ORGANIZATION ( #37, #87, #9 ) ;
#57 = EDGE_CURVE ( 'NONE', #332, #191, #206, .T. ) ;
#58 = ORIENTED_EDGE ( 'NONE', *, *, #219, .T. ) ;
#59 = ORIENTED_EDGE ( 'NONE', *, *, #21, .F. ) ;
#60 = APPLICATION_CONTEXT ( 'configuration controlled 3d designs of mechanical parts and assemblies' ) ;
#61 = VECTOR ( 'NONE', #135, 1000.000000000000000 ) ;
#62 = ORIENTED_EDGE ( 'NONE', *, *, #280, .F. ) ;
#63 = LOCAL_TIME ( 18, 46, 16.00000000000000000, #285 ) ;
#64 = CARTESIAN_POINT ( 'NONE',  ( 0.000000000000000000, 10.00000000000000000, 0.000000000000000000 ) ) ;
#65 = EDGE_CURVE ( 'NONE', #91, #332, #43, .T. ) ;
#66 = APPROVAL_STATUS ( 'not_yet_approved' ) ;
#67 = ORIENTED_EDGE ( 'NONE', *, *, #228, .F. ) ;
#68 = PERSON_AND_ORGANIZATION ( #55, #20 ) ;
#69 = CARTESIAN_POINT ( 'NONE',  ( 0.000000000000000000, 5.000000000000000000, 0.000000000000000000 ) ) ;
#70 = VECTOR ( 'NONE', #41, 1000.000000000000000 ) ;
#71 = PERSON_AND_ORGANIZATION ( #55, #20 ) ;
#72 = ADVANCED_BREP_SHAPE_REPRESENTATION ( 'InnerRingBase', ( #315, #157 ), #322 ) ;
#73 = CARTESIAN_POINT ( 'NONE',  ( -7.500000000000000888, 0.000000000000000000, 7.500000000000000000 ) ) ;
#74 = DIRECTION ( 'NONE',  ( 0.000000000000000000, 0.000000000000000000, -1.000000000000000000 ) ) ;
#75 = FACE_OUTER_BOUND ( 'NONE', #253, .T. ) ;
#76 = AXIS2_PLACEMENT_3D ( 'NONE', #162, #251, #83 ) ;
#77 = DIRECTION ( 'NONE',  ( 0.000000000000000000, 0.000000000000000000, 1.000000000000000000 ) ) ;
#78 = DIRECTION ( 'NONE',  ( 1.000000000000000000, 0.000000000000000000, 0.000000000000000000 ) ) ;
#79 = FACE_OUTER_BOUND ( 'NONE', #258, .T. ) ;
#80 = VECTOR ( 'NONE', #316, 1000.000000000000000 ) ;
#81 = DIRECTION ( 'NONE',  ( -0.000000000000000000, 0.000000000000000000, 1.000000000000000000 ) ) ;
#82 = VERTEX_POINT ( 'NONE', #44 ) ;
#83 = DIRECTION ( 'NONE',  ( 0.000000000000000000, 0.000000000000000000, 1.000000000000000000 ) ) ;
#84 = ORIENTED_EDGE ( 'NONE', *, *, #330, .T. ) ;
#85 = DIRECTION ( 'NONE',  ( 0.000000000000000000, 0.8574929257125442073, 0.5144957554275264577 ) ) ;
#86 = APPROVAL_DATE_TIME ( #202, #27 ) ;
#87 = APPROVAL ( #265, 'UNSPECIFIED' ) ;
#88 = FACE_OUTER_BOUND ( 'NONE', #177, .T. ) ;
#89 = ORIENTED_EDGE ( 'NONE', *, *, #179, .T. ) ;
#90 = ADVANCED_FACE ( 'NONE', ( #235 ), #254, .T. ) ;
#91 = VERTEX_POINT ( 'NONE', #208 ) ;
#92 = FACE_BOUND ( 'NONE', #26, .T. ) ;
#93 = PRODUCT_DEFINITION_FORMATION_WITH_SPECIFIED_SOURCE ( 'ANY', '', #196, .NOT_KNOWN. ) ;
#94 = MECHANICAL_CONTEXT ( 'NONE', #60, 'mechanical' ) ;
#95 = APPROVAL ( #66, 'UNSPECIFIED' ) ;
#96 = ORIENTED_EDGE ( 'NONE', *, *, #99, .T. ) ;
#97 = CALENDAR_DATE ( 2026, 18, 6 ) ;
#98 = DIRECTION ( 'NONE',  ( -0.000000000000000000, -1.000000000000000000, -0.000000000000000000 ) ) ;
#99 = EDGE_CURVE ( 'NONE', #118, #125, #106, .T. ) ;
#100 = DIRECTION ( 'NONE',  ( 0.000000000000000000, 0.000000000000000000, 1.000000000000000000 ) ) ;
#101 = VECTOR ( 'NONE', #223, 1000.000000000000000 ) ;
#102 = APPROVAL_DATE_TIME ( #345, #95 ) ;
#103 = DIRECTION ( 'NONE',  ( 0.000000000000000000, -0.8574929257125442073, -0.5144957554275264577 ) ) ;
#104 = CARTESIAN_POINT ( 'NONE',  ( 0.000000000000000000, 5.000000000000000000, -29.25000000000000000 ) ) ;
#105 = ADVANCED_FACE ( 'NONE', ( #348 ), #238, .F. ) ;
#106 = LINE ( 'NONE', #155, #260 ) ;
#107 = VECTOR ( 'NONE', #17, 1000.000000000000000 ) ;
#108 = DIRECTION ( 'NONE',  ( 0.000000000000000000, 1.000000000000000000, 0.000000000000000000 ) ) ;
#109 = ADVANCED_FACE ( 'NONE', ( #133 ), #344, .T. ) ;
#110 = DIRECTION ( 'NONE',  ( 1.000000000000000000, 0.000000000000000000, 0.000000000000000000 ) ) ;
#111 = DIRECTION ( 'NONE',  ( 0.000000000000000000, 0.000000000000000000, 1.000000000000000000 ) ) ;
#112 = VECTOR ( 'NONE', #78, 1000.000000000000000 ) ;
#113 = CC_DESIGN_APPROVAL ( #95, ( #93 ) ) ;
#114 =( NAMED_UNIT ( * ) SI_UNIT ( $, .STERADIAN. ) SOLID_ANGLE_UNIT ( ) );
#115 = CARTESIAN_POINT ( 'NONE',  ( 3.949485927250214050E-15, 10.00000000000000000, -32.25000000000000000 ) ) ;
#116 = CC_DESIGN_PERSON_AND_ORGANIZATION_ASSIGNMENT ( #30, #42, ( #312 ) ) ;
#117 = DATE_AND_TIME ( #152, #15 ) ;
#118 = VERTEX_POINT ( 'NONE', #240 ) ;
#119 = EDGE_LOOP ( 'NONE', ( #147, #301, #275, #122 ) ) ;
#120 = EDGE_CURVE ( 'NONE', #125, #172, #234, .T. ) ;
#121 = ORIENTED_EDGE ( 'NONE', *, *, #120, .F. ) ;
#122 = ORIENTED_EDGE ( 'NONE', *, *, #327, .F. ) ;
#123 = CC_DESIGN_PERSON_AND_ORGANIZATION_ASSIGNMENT ( #71, #209, ( #196 ) ) ;
#124 = CLOSED_SHELL ( 'NONE', ( #109, #11, #3, #291, #90, #159, #35, #232, #200, #105 ) ) ;
#125 = VERTEX_POINT ( 'NONE', #156 ) ;
#126 = PERSON_AND_ORGANIZATION ( #55, #20 ) ;
#127 = CARTESIAN_POINT ( 'NONE',  ( 7.499999999999999112, 0.000000000000000000, 7.500000000000000000 ) ) ;
#128 = DIRECTION ( 'NONE',  ( 0.000000000000000000, 1.000000000000000000, 0.000000000000000000 ) ) ;
#129 = PERSON_AND_ORGANIZATION_ROLE ( 'design_supplier' ) ;
#130 = DIRECTION ( 'NONE',  ( -0.000000000000000000, 1.000000000000000000, -0.000000000000000000 ) ) ;
#131 = VECTOR ( 'NONE', #305, 1000.000000000000000 ) ;
#132 = LOCAL_TIME ( 18, 46, 16.00000000000000000, #154 ) ;
#133 = FACE_OUTER_BOUND ( 'NONE', #139, .T. ) ;
#134 = LINE ( 'NONE', #342, #80 ) ;
#135 = DIRECTION ( 'NONE',  ( -0.000000000000000000, -0.000000000000000000, 1.000000000000000000 ) ) ;
#136 = CIRCLE ( 'NONE', #295, 32.25000000000000000 ) ;
#137 = LINE ( 'NONE', #276, #131 ) ;
#138 = DIRECTION ( 'NONE',  ( -0.000000000000000000, 0.000000000000000000, 1.000000000000000000 ) ) ;
#139 = EDGE_LOOP ( 'NONE', ( #356, #227, #336, #198 ) ) ;
#140 = FACE_OUTER_BOUND ( 'NONE', #1, .T. ) ;
#141 = APPROVAL_STATUS ( 'not_yet_approved' ) ;
#142 = CARTESIAN_POINT ( 'NONE',  ( 0.000000000000000000, 0.000000000000000000, 0.000000000000000000 ) ) ;
#143 = EDGE_CURVE ( 'NONE', #286, #197, #268, .T. ) ;
#144 = FACE_OUTER_BOUND ( 'NONE', #119, .T. ) ;
#145 = AXIS2_PLACEMENT_3D ( 'NONE', #297, #264, #10 ) ;
#146 = EDGE_LOOP ( 'NONE', ( #58, #4, #59, #310 ) ) ;
#147 = ORIENTED_EDGE ( 'NONE', *, *, #309, .T. ) ;
#148 = ORIENTED_EDGE ( 'NONE', *, *, #167, .T. ) ;
#149 = PERSON_AND_ORGANIZATION_ROLE ( 'creator' ) ;
#150 = CONICAL_SURFACE ( 'NONE', #76, 32.25000000000000000, 0.5404195002705840523 ) ;
#151 = ORIENTED_EDGE ( 'NONE', *, *, #65, .T. ) ;
#152 = CALENDAR_DATE ( 2026, 18, 6 ) ;
#153 = CARTESIAN_POINT ( 'NONE',  ( 0.000000000000000000, 5.000000000000000000, 0.000000000000000000 ) ) ;
#154 = COORDINATED_UNIVERSAL_TIME_OFFSET ( 9, 0, .AHEAD. ) ;
#155 = CARTESIAN_POINT ( 'NONE',  ( 7.499999999999999112, 0.000000000000000000, -7.500000000000000000 ) ) ;
#156 = CARTESIAN_POINT ( 'NONE',  ( 7.499999999999999112, 10.00000000000000000, -7.500000000000000000 ) ) ;
#157 = AXIS2_PLACEMENT_3D ( 'NONE', #142, #236, #176 ) ;
#158 = CC_DESIGN_APPROVAL ( #27, ( #312 ) ) ;
#159 = ADVANCED_FACE ( 'NONE', ( #212, #75 ), #184, .F. ) ;
#160 = DIRECTION ( 'NONE',  ( 0.000000000000000000, 1.000000000000000000, 0.000000000000000000 ) ) ;
#161 = DIRECTION ( 'NONE',  ( 1.000000000000000000, 0.000000000000000000, 0.000000000000000000 ) ) ;
#162 = CARTESIAN_POINT ( 'NONE',  ( 0.000000000000000000, 10.00000000000000000, 0.000000000000000000 ) ) ;
#163 = AXIS2_PLACEMENT_3D ( 'NONE', #168, #108, #110 ) ;
#164 = PRODUCT_RELATED_PRODUCT_CATEGORY ( 'detail', '', ( #196 ) ) ;
#165 = LINE ( 'NONE', #221, #194 ) ;
#166 = ORIENTED_EDGE ( 'NONE', *, *, #179, .F. ) ;
#167 = EDGE_CURVE ( 'NONE', #233, #82, #237, .T. ) ;
#168 = CARTESIAN_POINT ( 'NONE',  ( 0.000000000000000000, 5.000000000000000000, 0.000000000000000000 ) ) ;
#169 = ORIENTED_EDGE ( 'NONE', *, *, #57, .F. ) ;
#170 = DATE_AND_TIME ( #259, #132 ) ;
#171 = EDGE_LOOP ( 'NONE', ( #337, #31, #62, #96 ) ) ;
#172 = VERTEX_POINT ( 'NONE', #296 ) ;
#173 = CC_DESIGN_PERSON_AND_ORGANIZATION_ASSIGNMENT ( #230, #290, ( #239 ) ) ;
#174 = ORIENTED_EDGE ( 'NONE', *, *, #330, .F. ) ;
#175 = DIRECTION ( 'NONE',  ( 0.000000000000000000, -0.000000000000000000, 1.000000000000000000 ) ) ;
#176 = DIRECTION ( 'NONE',  ( 1.000000000000000000, 0.000000000000000000, 0.000000000000000000 ) ) ;
#177 = EDGE_LOOP ( 'NONE', ( #33, #148 ) ) ;
#178 = CC_DESIGN_PERSON_AND_ORGANIZATION_ASSIGNMENT ( #287, #149, ( #93 ) ) ;
#179 = EDGE_CURVE ( 'NONE', #197, #125, #46, .T. ) ;
#180 = CARTESIAN_POINT ( 'NONE',  ( 3.949485927250214839E-15, 0.000000000000000000, 32.25000000000000000 ) ) ;
#181 = APPROVAL_ROLE ( '' ) ;
#182 = CARTESIAN_POINT ( 'NONE',  ( 7.499999999999999112, 0.000000000000000000, 7.500000000000000000 ) ) ;
#183 = CARTESIAN_POINT ( 'NONE',  ( 0.000000000000000000, 0.000000000000000000, 0.000000000000000000 ) ) ;
#184 = PLANE ( 'NONE',  #145 ) ;
#185 = VECTOR ( 'NONE', #347, 1000.000000000000000 ) ;
#186 = CARTESIAN_POINT ( 'NONE',  ( -7.500000000000000888, 10.00000000000000000, 7.500000000000000000 ) ) ;
#187 = FACE_OUTER_BOUND ( 'NONE', #146, .T. ) ;
#188 = EDGE_CURVE ( 'NONE', #314, #191, #134, .T. ) ;
#189 = DIRECTION ( 'NONE',  ( 6.300755800592197211E-17, 0.8574929257125442073, -0.5144957554275264577 ) ) ;
#190 = CARTESIAN_POINT ( 'NONE',  ( -7.500000000000000888, 10.00000000000000000, 7.500000000000000000 ) ) ;
#191 = VERTEX_POINT ( 'NONE', #180 ) ;
#192 = VERTEX_POINT ( 'NONE', #357 ) ;
#193 =( NAMED_UNIT ( * ) PLANE_ANGLE_UNIT ( ) SI_UNIT ( $, .RADIAN. ) );
#194 = VECTOR ( 'NONE', #49, 1000.000000000000000 ) ;
#195 = ORIENTED_EDGE ( 'NONE', *, *, #57, .T. ) ;
#196 = PRODUCT ( 'InnerRingBase', 'InnerRingBase', '', ( #94 ) ) ;
#197 = VERTEX_POINT ( 'NONE', #216 ) ;
#198 = ORIENTED_EDGE ( 'NONE', *, *, #65, .F. ) ;
#199 = CONICAL_SURFACE ( 'NONE', #214, 32.25000000000000000, 0.5404195002705840523 ) ;
#200 = ADVANCED_FACE ( 'NONE', ( #187 ), #215, .F. ) ;
#201 = EDGE_LOOP ( 'NONE', ( #361, #67, #151, #195 ) ) ;
#202 = DATE_AND_TIME ( #257, #323 ) ;
#203 = ORIENTED_EDGE ( 'NONE', *, *, #167, .F. ) ;
#204 = SECURITY_CLASSIFICATION_LEVEL ( 'unclassified' ) ;
#205 = DIRECTION ( 'NONE',  ( -1.000000000000000000, 0.000000000000000000, -0.000000000000000000 ) ) ;
#206 = CIRCLE ( 'NONE', #339, 32.25000000000000000 ) ;
#207 = APPROVAL_PERSON_ORGANIZATION ( #28, #27, #334 ) ;
#208 = CARTESIAN_POINT ( 'NONE',  ( 3.765788907378111328E-15, 5.000000000000000000, -29.25000000000000000 ) ) ;
#209 = PERSON_AND_ORGANIZATION_ROLE ( 'design_owner' ) ;
#210 = DIRECTION ( 'NONE',  ( 0.000000000000000000, 0.000000000000000000, -1.000000000000000000 ) ) ;
#211 = CC_DESIGN_DATE_AND_TIME_ASSIGNMENT ( #117, #6, ( #239 ) ) ;
#212 = FACE_BOUND ( 'NONE', #338, .T. ) ;
#213 = CARTESIAN_POINT ( 'NONE',  ( -7.500000000000000888, 10.00000000000000000, -7.500000000000000000 ) ) ;
#214 = AXIS2_PLACEMENT_3D ( 'NONE', #270, #128, #77 ) ;
#215 = PLANE ( 'NONE',  #306 ) ;
#216 = CARTESIAN_POINT ( 'NONE',  ( 7.499999999999999112, 10.00000000000000000, 7.500000000000000000 ) ) ;
#217 = CARTESIAN_POINT ( 'NONE',  ( 0.000000000000000000, 5.000000000000000000, 29.25000000000000000 ) ) ;
#218 = AXIS2_PLACEMENT_3D ( 'NONE', #64, #38, #175 ) ;
#219 = EDGE_CURVE ( 'NONE', #172, #286, #246, .T. ) ;
#220 = ORIENTED_EDGE ( 'NONE', *, *, #29, .T. ) ;
#221 = CARTESIAN_POINT ( 'NONE',  ( -7.500000000000000888, 0.000000000000000000, 7.500000000000000000 ) ) ;
#222 = COORDINATED_UNIVERSAL_TIME_OFFSET ( 9, 0, .AHEAD. ) ;
#223 = DIRECTION ( 'NONE',  ( -0.000000000000000000, 1.000000000000000000, -0.000000000000000000 ) ) ;
#224 = LOCAL_TIME ( 18, 46, 16.00000000000000000, #222 ) ;
#225 = ORIENTED_EDGE ( 'NONE', *, *, #269, .F. ) ;
#226 = EDGE_CURVE ( 'NONE', #191, #332, #354, .T. ) ;
#227 = ORIENTED_EDGE ( 'NONE', *, *, #188, .T. ) ;
#228 = EDGE_CURVE ( 'NONE', #91, #314, #249, .T. ) ;
#229 = ORIENTED_EDGE ( 'NONE', *, *, #21, .T. ) ;
#230 = PERSON_AND_ORGANIZATION ( #55, #20 ) ;
#231 = AXIS2_PLACEMENT_3D ( 'NONE', #350, #247, #111 ) ;
#232 = ADVANCED_FACE ( 'NONE', ( #140 ), #25, .F. ) ;
#233 = VERTEX_POINT ( 'NONE', #325 ) ;
#234 = LINE ( 'NONE', #213, #32 ) ;
#235 = FACE_OUTER_BOUND ( 'NONE', #201, .T. ) ;
#236 = DIRECTION ( 'NONE',  ( 0.000000000000000000, 0.000000000000000000, 1.000000000000000000 ) ) ;
#237 = CIRCLE ( 'NONE', #19, 32.25000000000000000 ) ;
#238 = PLANE ( 'NONE',  #288 ) ;
#239 = PRODUCT_DEFINITION ( 'UNKNOWN', '', #93, #355 ) ;
#240 = CARTESIAN_POINT ( 'NONE',  ( 7.499999999999999112, 0.000000000000000000, -7.500000000000000000 ) ) ;
#241 = CARTESIAN_POINT ( 'NONE',  ( -7.500000000000000888, 0.000000000000000000, 7.500000000000000000 ) ) ;
#242 = PRODUCT_DEFINITION_SHAPE ( 'NONE', 'NONE',  #239 ) ;
#243 = CARTESIAN_POINT ( 'NONE',  ( -7.500000000000000888, 0.000000000000000000, 7.500000000000000000 ) ) ;
#244 = APPROVAL_PERSON_ORGANIZATION ( #68, #95, #181 ) ;
#245 = DIRECTION ( 'NONE',  ( 1.000000000000000000, 0.000000000000000000, 0.000000000000000000 ) ) ;
#246 = LINE ( 'NONE', #190, #61 ) ;
#247 = DIRECTION ( 'NONE',  ( 0.000000000000000000, 1.000000000000000000, 0.000000000000000000 ) ) ;
#248 = ORIENTED_EDGE ( 'NONE', *, *, #143, .T. ) ;
#249 = CIRCLE ( 'NONE', #163, 29.25000000000000000 ) ;
#250 = CC_DESIGN_PERSON_AND_ORGANIZATION_ASSIGNMENT ( #126, #129, ( #93 ) ) ;
#251 = DIRECTION ( 'NONE',  ( 0.000000000000000000, 1.000000000000000000, 0.000000000000000000 ) ) ;
#252 = COORDINATED_UNIVERSAL_TIME_OFFSET ( 9, 0, .AHEAD. ) ;
#253 = EDGE_LOOP ( 'NONE', ( #169, #303 ) ) ;
#254 = CONICAL_SURFACE ( 'NONE', #317, 29.25000000000000000, 0.5404195002705840523 ) ;
#255 = ORIENTED_EDGE ( 'NONE', *, *, #228, .T. ) ;
#256 = VERTEX_POINT ( 'NONE', #326 ) ;
#257 = CALENDAR_DATE ( 2026, 18, 6 ) ;
#258 = EDGE_LOOP ( 'NONE', ( #311, #255, #53, #203 ) ) ;
#259 = CALENDAR_DATE ( 2026, 18, 6 ) ;
#260 = VECTOR ( 'NONE', #130, 1000.000000000000000 ) ;
#261 = CC_DESIGN_APPROVAL ( #87, ( #239 ) ) ;
#262 = ORIENTED_EDGE ( 'NONE', *, *, #269, .T. ) ;
#263 = APPLICATION_PROTOCOL_DEFINITION ( 'international standard', 'config_control_design', 1994, #60 ) ;
#264 = DIRECTION ( 'NONE',  ( 0.000000000000000000, 1.000000000000000000, 0.000000000000000000 ) ) ;
#265 = APPROVAL_STATUS ( 'not_yet_approved' ) ;
#266 = FACE_OUTER_BOUND ( 'NONE', #335, .T. ) ;
#267 = AXIS2_PLACEMENT_3D ( 'NONE', #329, #333, #245 ) ;
#268 = LINE ( 'NONE', #186, #185 ) ;
#269 = EDGE_CURVE ( 'NONE', #34, #256, #300, .T. ) ;
#270 = CARTESIAN_POINT ( 'NONE',  ( 0.000000000000000000, 10.00000000000000000, 0.000000000000000000 ) ) ;
#271 = CARTESIAN_POINT ( 'NONE',  ( -7.500000000000000888, 0.000000000000000000, 7.500000000000000000 ) ) ;
#272 = AXIS2_PLACEMENT_3D ( 'NONE', #182, #161, #292 ) ;
#273 = CARTESIAN_POINT ( 'NONE',  ( 0.000000000000000000, 10.00000000000000000, 0.000000000000000000 ) ) ;
#274 = CARTESIAN_POINT ( 'NONE',  ( -7.500000000000000888, 10.00000000000000000, 7.500000000000000000 ) ) ;
#275 = ORIENTED_EDGE ( 'NONE', *, *, #353, .F. ) ;
#276 = CARTESIAN_POINT ( 'NONE',  ( -7.500000000000000888, 0.000000000000000000, -7.500000000000000000 ) ) ;
#277 = VECTOR ( 'NONE', #352, 1000.000000000000000 ) ;
#278 = APPLICATION_CONTEXT ( 'configuration controlled 3d designs of mechanical parts and assemblies' ) ;
#279 = DATE_AND_TIME ( #97, #63 ) ;
#280 = EDGE_CURVE ( 'NONE', #118, #192, #137, .T. ) ;
#281 = LINE ( 'NONE', #284, #101 ) ;
#282 = ORIENTED_EDGE ( 'NONE', *, *, #304, .T. ) ;
#283 = ORIENTED_EDGE ( 'NONE', *, *, #143, .F. ) ;
#284 = CARTESIAN_POINT ( 'NONE',  ( -7.500000000000000888, 0.000000000000000000, -7.500000000000000000 ) ) ;
#285 = COORDINATED_UNIVERSAL_TIME_OFFSET ( 9, 0, .AHEAD. ) ;
#286 = VERTEX_POINT ( 'NONE', #274 ) ;
#287 = PERSON_AND_ORGANIZATION ( #55, #20 ) ;
#288 = AXIS2_PLACEMENT_3D ( 'NONE', #16, #210, #205 ) ;
#289 = DIRECTION ( 'NONE',  ( -0.000000000000000000, 1.000000000000000000, -0.000000000000000000 ) ) ;
#290 = PERSON_AND_ORGANIZATION_ROLE ( 'creator' ) ;
#291 = ADVANCED_FACE ( 'NONE', ( #79 ), #150, .T. ) ;
#292 = DIRECTION ( 'NONE',  ( 0.000000000000000000, 0.000000000000000000, -1.000000000000000000 ) ) ;
#293 = LINE ( 'NONE', #127, #54 ) ;
#294 = EDGE_CURVE ( 'NONE', #91, #233, #298, .T. ) ;
#295 = AXIS2_PLACEMENT_3D ( 'NONE', #273, #24, #51 ) ;
#296 = CARTESIAN_POINT ( 'NONE',  ( -7.500000000000000888, 10.00000000000000000, -7.500000000000000000 ) ) ;
#297 = CARTESIAN_POINT ( 'NONE',  ( 0.000000000000000000, 0.000000000000000000, 0.000000000000000000 ) ) ;
#298 = LINE ( 'NONE', #115, #349 ) ;
#299 = LINE ( 'NONE', #23, #277 ) ;
#300 = LINE ( 'NONE', #271, #112 ) ;
#301 = ORIENTED_EDGE ( 'NONE', *, *, #294, .T. ) ;
#302 = DIRECTION ( 'NONE',  ( -1.000000000000000000, 0.000000000000000000, -0.000000000000000000 ) ) ;
#303 = ORIENTED_EDGE ( 'NONE', *, *, #226, .F. ) ;
#304 = EDGE_CURVE ( 'NONE', #34, #286, #165, .T. ) ;
#305 = DIRECTION ( 'NONE',  ( -1.000000000000000000, -0.000000000000000000, -0.000000000000000000 ) ) ;
#306 = AXIS2_PLACEMENT_3D ( 'NONE', #18, #302, #138 ) ;
#307 = SHAPE_DEFINITION_REPRESENTATION ( #242, #72 ) ;
#308 = ORIENTED_EDGE ( 'NONE', *, *, #99, .F. ) ;
#309 = EDGE_CURVE ( 'NONE', #314, #91, #39, .T. ) ;
#310 = ORIENTED_EDGE ( 'NONE', *, *, #7, .T. ) ;
#311 = ORIENTED_EDGE ( 'NONE', *, *, #294, .F. ) ;
#312 = SECURITY_CLASSIFICATION ( '', '', #204 ) ;
#313 = PLANE ( 'NONE',  #218 ) ;
#314 = VERTEX_POINT ( 'NONE', #217 ) ;
#315 = MANIFOLD_SOLID_BREP ( 'Cut-Extrude1', #124 ) ;
#316 = DIRECTION ( 'NONE',  ( 6.300755800592197211E-17, -0.8574929257125442073, 0.5144957554275264577 ) ) ;
#317 = AXIS2_PLACEMENT_3D ( 'NONE', #153, #98, #74 ) ;
#318 = LINE ( 'NONE', #73, #70 ) ;
#319 = UNCERTAINTY_MEASURE_WITH_UNIT (LENGTH_MEASURE( 1.000000000000000082E-05 ), #331, 'distance_accuracy_value', 'NONE');
#320 = DIRECTION ( 'NONE',  ( -0.000000000000000000, -1.000000000000000000, -0.000000000000000000 ) ) ;
#321 = DIRECTION ( 'NONE',  ( 0.000000000000000000, 0.000000000000000000, 1.000000000000000000 ) ) ;
#322 =( GEOMETRIC_REPRESENTATION_CONTEXT ( 3 ) GLOBAL_UNCERTAINTY_ASSIGNED_CONTEXT ( ( #319 ) ) GLOBAL_UNIT_ASSIGNED_CONTEXT ( ( #331, #193, #114 ) ) REPRESENTATION_CONTEXT ( 'NONE', 'WORKASPACE' ) );
#323 = LOCAL_TIME ( 18, 46, 16.00000000000000000, #40 ) ;
#324 = DIRECTION ( 'NONE',  ( -1.000000000000000000, -0.000000000000000000, -0.000000000000000000 ) ) ;
#325 = CARTESIAN_POINT ( 'NONE',  ( 3.949485927250214050E-15, 10.00000000000000000, -32.25000000000000000 ) ) ;
#326 = CARTESIAN_POINT ( 'NONE',  ( 7.499999999999999112, 0.000000000000000000, 7.500000000000000000 ) ) ;
#327 = EDGE_CURVE ( 'NONE', #314, #82, #22, .T. ) ;
#328 = AXIS2_PLACEMENT_3D ( 'NONE', #243, #81, #52 ) ;
#329 = CARTESIAN_POINT ( 'NONE',  ( 0.000000000000000000, 5.000000000000000000, 0.000000000000000000 ) ) ;
#330 = EDGE_CURVE ( 'NONE', #256, #118, #299, .T. ) ;
#331 =( LENGTH_UNIT ( ) NAMED_UNIT ( * ) SI_UNIT ( .MILLI., .METRE. ) );
#332 = VERTEX_POINT ( 'NONE', #50 ) ;
#333 = DIRECTION ( 'NONE',  ( 0.000000000000000000, 1.000000000000000000, 0.000000000000000000 ) ) ;
#334 = APPROVAL_ROLE ( '' ) ;
#335 = EDGE_LOOP ( 'NONE', ( #89, #308, #174, #220 ) ) ;
#336 = ORIENTED_EDGE ( 'NONE', *, *, #226, .T. ) ;
#337 = ORIENTED_EDGE ( 'NONE', *, *, #120, .T. ) ;
#338 = EDGE_LOOP ( 'NONE', ( #262, #84, #341, #229 ) ) ;
#339 = AXIS2_PLACEMENT_3D ( 'NONE', #183, #160, #321 ) ;
#340 = DATE_TIME_ROLE ( 'classification_date' ) ;
#341 = ORIENTED_EDGE ( 'NONE', *, *, #280, .T. ) ;
#342 = CARTESIAN_POINT ( 'NONE',  ( 3.582091887506008606E-15, 5.000000000000000000, 29.25000000000000000 ) ) ;
#343 = CARTESIAN_POINT ( 'NONE',  ( 0.000000000000000000, 10.00000000000000000, 0.000000000000000000 ) ) ;
#344 = CONICAL_SURFACE ( 'NONE', #45, 29.25000000000000000, 0.5404195002705840523 ) ;
#345 = DATE_AND_TIME ( #2, #224 ) ;
#346 = DIRECTION ( 'NONE',  ( 0.000000000000000000, 0.000000000000000000, -1.000000000000000000 ) ) ;
#347 = DIRECTION ( 'NONE',  ( 1.000000000000000000, 0.000000000000000000, 0.000000000000000000 ) ) ;
#348 = FACE_OUTER_BOUND ( 'NONE', #171, .T. ) ;
#349 = VECTOR ( 'NONE', #189, 1000.000000000000000 ) ;
#350 = CARTESIAN_POINT ( 'NONE',  ( 0.000000000000000000, 0.000000000000000000, 0.000000000000000000 ) ) ;
#351 = CARTESIAN_POINT ( 'NONE',  ( 0.000000000000000000, 10.00000000000000000, 32.25000000000000000 ) ) ;
#352 = DIRECTION ( 'NONE',  ( 0.000000000000000000, 0.000000000000000000, -1.000000000000000000 ) ) ;
#353 = EDGE_CURVE ( 'NONE', #82, #233, #136, .T. ) ;
#354 = CIRCLE ( 'NONE', #231, 32.25000000000000000 ) ;
#355 = DESIGN_CONTEXT ( 'detailed design', #278, 'design' ) ;
#356 = ORIENTED_EDGE ( 'NONE', *, *, #309, .F. ) ;
#357 = CARTESIAN_POINT ( 'NONE',  ( -7.500000000000000888, 0.000000000000000000, -7.500000000000000000 ) ) ;
#358 = APPLICATION_PROTOCOL_DEFINITION ( 'international standard', 'config_control_design', 1994, #278 ) ;
#359 = ORIENTED_EDGE ( 'NONE', *, *, #29, .F. ) ;
#360 = VECTOR ( 'NONE', #103, 1000.000000000000000 ) ;
#361 = ORIENTED_EDGE ( 'NONE', *, *, #188, .F. ) ;
ENDSEC;
END-ISO-10303-21;
