ISO-10303-21;
HEADER;
FILE_DESCRIPTION (( 'STEP AP203' ),
    '1' );
FILE_NAME ('OuterRingBase.STEP',
    '2026-06-18T09:46:05',
    ( '' ),
    ( '' ),
    'SwSTEP 2.0',
    'SolidWorks 2026',
    '' );
FILE_SCHEMA (( 'CONFIG_CONTROL_DESIGN' ));
ENDSEC;

DATA;
#1 = CARTESIAN_POINT ( 'NONE',  ( 4.592425496802575156E-15, 0.000000000000000000, 37.50000000000000711 ) ) ;
#2 = CLOSED_SHELL ( 'NONE', ( #75, #186, #110, #287, #84, #230, #90, #250 ) ) ;
#3 = DIRECTION ( 'NONE',  ( 0.000000000000000000, 1.000000000000000000, 0.000000000000000000 ) ) ;
#4 = DIRECTION ( 'NONE',  ( -0.000000000000000000, -1.000000000000000000, -0.000000000000000000 ) ) ;
#5 = PRODUCT_RELATED_PRODUCT_CATEGORY ( 'detail', '', ( #101 ) ) ;
#6 = DIRECTION ( 'NONE',  ( -0.000000000000000000, -1.000000000000000000, -0.000000000000000000 ) ) ;
#7 = DIRECTION ( 'NONE',  ( 0.000000000000000000, 0.000000000000000000, 1.000000000000000000 ) ) ;
#8 = DIRECTION ( 'NONE',  ( 0.000000000000000000, 1.000000000000000000, 0.000000000000000000 ) ) ;
#9 = PERSON_AND_ORGANIZATION ( #234, #261 ) ;
#10 = VERTEX_POINT ( 'NONE', #15 ) ;
#11 = PERSON_AND_ORGANIZATION_ROLE ( 'design_owner' ) ;
#12 = ORIENTED_EDGE ( 'NONE', *, *, #219, .F. ) ;
#13 = ORIENTED_EDGE ( 'NONE', *, *, #237, .F. ) ;
#14 = ORIENTED_EDGE ( 'NONE', *, *, #212, .T. ) ;
#15 = CARTESIAN_POINT ( 'NONE',  ( 3.796405077356795904E-15, 5.000000000000000000, 29.50000000000000355 ) ) ;
#16 = COORDINATED_UNIVERSAL_TIME_OFFSET ( 9, 0, .AHEAD. ) ;
#17 = ORIENTED_EDGE ( 'NONE', *, *, #173, .T. ) ;
#18 = PERSON_AND_ORGANIZATION ( #234, #261 ) ;
#19 = FACE_OUTER_BOUND ( 'NONE', #294, .T. ) ;
#20 = APPROVAL_ROLE ( '' ) ;
#21 = CARTESIAN_POINT ( 'NONE',  ( 0.000000000000000000, 0.000000000000000000, 0.000000000000000000 ) ) ;
#22 = DIRECTION ( 'NONE',  ( 0.000000000000000000, 1.000000000000000000, 0.000000000000000000 ) ) ;
#23 = CARTESIAN_POINT ( 'NONE',  ( 0.000000000000000000, 5.000000000000000000, 0.000000000000000000 ) ) ;
#24 = LINE ( 'NONE', #145, #137 ) ;
#25 = DIRECTION ( 'NONE',  ( 0.000000000000000000, 0.8574929257125442073, 0.5144957554275264577 ) ) ;
#26 = CARTESIAN_POINT ( 'NONE',  ( 0.000000000000000000, 10.00000000000000000, 0.000000000000000000 ) ) ;
#27 = CIRCLE ( 'NONE', #265, 37.50000000000000711 ) ;
#28 = AXIS2_PLACEMENT_3D ( 'NONE', #163, #22, #116 ) ;
#29 = ORIENTED_EDGE ( 'NONE', *, *, #117, .T. ) ;
#30 = ORIENTED_EDGE ( 'NONE', *, *, #212, .F. ) ;
#31 = ORIENTED_EDGE ( 'NONE', *, *, #290, .T. ) ;
#32 = ORIENTED_EDGE ( 'NONE', *, *, #266, .F. ) ;
#33 = APPROVAL_DATE_TIME ( #275, #41 ) ;
#34 = APPROVAL ( #88, 'UNSPECIFIED' ) ;
#35 = ORIENTED_EDGE ( 'NONE', *, *, #91, .F. ) ;
#36 = PERSON_AND_ORGANIZATION_ROLE ( 'design_supplier' ) ;
#37 = DIRECTION ( 'NONE',  ( 0.000000000000000000, 1.000000000000000000, 0.000000000000000000 ) ) ;
#38 = CALENDAR_DATE ( 2026, 18, 6 ) ;
#39 = CYLINDRICAL_SURFACE ( 'NONE', #68, 37.50000000000000711 ) ;
#40 = APPROVAL_DATE_TIME ( #253, #34 ) ;
#41 = APPROVAL ( #245, 'UNSPECIFIED' ) ;
#42 = CARTESIAN_POINT ( 'NONE',  ( 0.000000000000000000, 0.000000000000000000, -37.50000000000000711 ) ) ;
#43 = DIRECTION ( 'NONE',  ( 0.000000000000000000, 0.000000000000000000, 1.000000000000000000 ) ) ;
#44 = DIRECTION ( 'NONE',  ( 0.000000000000000000, 0.000000000000000000, -1.000000000000000000 ) ) ;
#45 = VECTOR ( 'NONE', #6, 1000.000000000000000 ) ;
#46 =( GEOMETRIC_REPRESENTATION_CONTEXT ( 3 ) GLOBAL_UNCERTAINTY_ASSIGNED_CONTEXT ( ( #114 ) ) GLOBAL_UNIT_ASSIGNED_CONTEXT ( ( #267, #285, #133 ) ) REPRESENTATION_CONTEXT ( 'NONE', 'WORKASPACE' ) );
#47 = DIRECTION ( 'NONE',  ( 0.000000000000000000, 1.000000000000000000, 0.000000000000000000 ) ) ;
#48 = FACE_OUTER_BOUND ( 'NONE', #181, .T. ) ;
#49 = APPLICATION_PROTOCOL_DEFINITION ( 'international standard', 'config_control_design', 1994, #264 ) ;
#50 = MANIFOLD_SOLID_BREP ( 'Sweep1', #2 ) ;
#51 = VECTOR ( 'NONE', #25, 1000.000000000000000 ) ;
#52 = LOCAL_TIME ( 18, 46, 5.000000000000000000, #185 ) ;
#53 = ORIENTED_EDGE ( 'NONE', *, *, #175, .T. ) ;
#54 = ORIENTED_EDGE ( 'NONE', *, *, #219, .T. ) ;
#55 = APPROVAL_PERSON_ORGANIZATION ( #9, #164, #99 ) ;
#56 = ORIENTED_EDGE ( 'NONE', *, *, #200, .F. ) ;
#57 = DIRECTION ( 'NONE',  ( 0.000000000000000000, -0.000000000000000000, 1.000000000000000000 ) ) ;
#58 = AXIS2_PLACEMENT_3D ( 'NONE', #96, #254, #228 ) ;
#59 = DIRECTION ( 'NONE',  ( 0.000000000000000000, 1.000000000000000000, 0.000000000000000000 ) ) ;
#60 = DATE_AND_TIME ( #38, #69 ) ;
#61 = VERTEX_POINT ( 'NONE', #109 ) ;
#62 = CC_DESIGN_DATE_AND_TIME_ASSIGNMENT ( #60, #141, ( #103 ) ) ;
#63 = CARTESIAN_POINT ( 'NONE',  ( 0.000000000000000000, 10.00000000000000000, -37.50000000000000711 ) ) ;
#64 = CIRCLE ( 'NONE', #239, 37.50000000000000711 ) ;
#65 = CARTESIAN_POINT ( 'NONE',  ( 0.000000000000000000, 10.00000000000000000, 32.50000000000000000 ) ) ;
#66 = DIRECTION ( 'NONE',  ( 1.000000000000000000, 0.000000000000000000, 0.000000000000000000 ) ) ;
#67 = CYLINDRICAL_SURFACE ( 'NONE', #231, 37.50000000000000711 ) ;
#68 = AXIS2_PLACEMENT_3D ( 'NONE', #142, #226, #202 ) ;
#69 = LOCAL_TIME ( 18, 46, 5.000000000000000000, #16 ) ;
#70 = CARTESIAN_POINT ( 'NONE',  ( 0.000000000000000000, 10.00000000000000000, 0.000000000000000000 ) ) ;
#71 = CC_DESIGN_PERSON_AND_ORGANIZATION_ASSIGNMENT ( #248, #221, ( #172 ) ) ;
#72 = LINE ( 'NONE', #216, #198 ) ;
#73 = VERTEX_POINT ( 'NONE', #183 ) ;
#74 = ORIENTED_EDGE ( 'NONE', *, *, #197, .T. ) ;
#75 = ADVANCED_FACE ( 'NONE', ( #274 ), #125, .F. ) ;
#76 = CARTESIAN_POINT ( 'NONE',  ( 0.000000000000000000, 0.000000000000000000, 0.000000000000000000 ) ) ;
#77 = AXIS2_PLACEMENT_3D ( 'NONE', #282, #165, #236 ) ;
#78 = CC_DESIGN_APPROVAL ( #41, ( #172 ) ) ;
#79 = CARTESIAN_POINT ( 'NONE',  ( 0.000000000000000000, 10.00000000000000000, 0.000000000000000000 ) ) ;
#80 = PRODUCT_DEFINITION_SHAPE ( 'NONE', 'NONE',  #123 ) ;
#81 = CC_DESIGN_PERSON_AND_ORGANIZATION_ASSIGNMENT ( #18, #36, ( #172 ) ) ;
#82 = CC_DESIGN_SECURITY_CLASSIFICATION ( #103, ( #172 ) ) ;
#83 = PERSON_AND_ORGANIZATION_ROLE ( 'classification_officer' ) ;
#84 = ADVANCED_FACE ( 'NONE', ( #19, #249 ), #136, .F. ) ;
#85 = DIRECTION ( 'NONE',  ( 0.000000000000000000, 1.000000000000000000, 0.000000000000000000 ) ) ;
#86 = APPLICATION_CONTEXT ( 'configuration controlled 3d designs of mechanical parts and assemblies' ) ;
#87 = CARTESIAN_POINT ( 'NONE',  ( 0.000000000000000000, 10.00000000000000000, 0.000000000000000000 ) ) ;
#88 = APPROVAL_STATUS ( 'not_yet_approved' ) ;
#89 = CARTESIAN_POINT ( 'NONE',  ( 0.000000000000000000, 0.000000000000000000, 0.000000000000000000 ) ) ;
#90 = ADVANCED_FACE ( 'NONE', ( #140 ), #94, .F. ) ;
#91 = EDGE_CURVE ( 'NONE', #61, #10, #270, .T. ) ;
#92 = DIRECTION ( 'NONE',  ( -0.000000000000000000, -1.000000000000000000, -0.000000000000000000 ) ) ;
#93 = LINE ( 'NONE', #284, #157 ) ;
#94 = CONICAL_SURFACE ( 'NONE', #182, 29.50000000000000355, 0.5404195002705840523 ) ;
#95 = CC_DESIGN_APPROVAL ( #34, ( #103 ) ) ;
#96 = CARTESIAN_POINT ( 'NONE',  ( 0.000000000000000000, 10.00000000000000000, 0.000000000000000000 ) ) ;
#97 = MECHANICAL_CONTEXT ( 'NONE', #86, 'mechanical' ) ;
#98 = DATE_AND_TIME ( #127, #297 ) ;
#99 = APPROVAL_ROLE ( '' ) ;
#100 = ORIENTED_EDGE ( 'NONE', *, *, #197, .F. ) ;
#101 = PRODUCT ( 'OuterRingBase', 'OuterRingBase', '', ( #97 ) ) ;
#102 = CIRCLE ( 'NONE', #279, 32.50000000000000000 ) ;
#103 = SECURITY_CLASSIFICATION ( '', '', #296 ) ;
#104 = PERSON_AND_ORGANIZATION ( #234, #261 ) ;
#105 = VERTEX_POINT ( 'NONE', #160 ) ;
#106 = ADVANCED_BREP_SHAPE_REPRESENTATION ( 'OuterRingBase', ( #50, #215 ), #46 ) ;
#107 = ORIENTED_EDGE ( 'NONE', *, *, #291, .F. ) ;
#108 = PERSON_AND_ORGANIZATION ( #234, #261 ) ;
#109 = CARTESIAN_POINT ( 'NONE',  ( 0.000000000000000000, 5.000000000000000000, -29.50000000000000355 ) ) ;
#110 = ADVANCED_FACE ( 'NONE', ( #252 ), #39, .T. ) ;
#111 = AXIS2_PLACEMENT_3D ( 'NONE', #298, #85, #184 ) ;
#112 = DIRECTION ( 'NONE',  ( -0.000000000000000000, -1.000000000000000000, -0.000000000000000000 ) ) ;
#113 = AXIS2_PLACEMENT_3D ( 'NONE', #174, #8, #131 ) ;
#114 = UNCERTAINTY_MEASURE_WITH_UNIT (LENGTH_MEASURE( 1.000000000000000082E-05 ), #267, 'distance_accuracy_value', 'NONE');
#115 = VERTEX_POINT ( 'NONE', #42 ) ;
#116 = DIRECTION ( 'NONE',  ( 0.000000000000000000, -0.000000000000000000, 1.000000000000000000 ) ) ;
#117 = EDGE_CURVE ( 'NONE', #73, #129, #132, .T. ) ;
#118 = CARTESIAN_POINT ( 'NONE',  ( 0.000000000000000000, 0.000000000000000000, 0.000000000000000000 ) ) ;
#119 = EDGE_CURVE ( 'NONE', #105, #138, #208, .T. ) ;
#120 = CIRCLE ( 'NONE', #195, 29.50000000000000355 ) ;
#121 = CARTESIAN_POINT ( 'NONE',  ( 0.000000000000000000, 0.000000000000000000, -32.50000000000000000 ) ) ;
#122 = DIRECTION ( 'NONE',  ( 0.000000000000000000, 1.000000000000000000, 0.000000000000000000 ) ) ;
#123 = PRODUCT_DEFINITION ( 'UNKNOWN', '', #172, #158 ) ;
#124 = PLANE ( 'NONE',  #28 ) ;
#125 = CONICAL_SURFACE ( 'NONE', #259, 32.50000000000000000, 0.5404195002705840523 ) ;
#126 = APPROVAL_PERSON_ORGANIZATION ( #108, #41, #227 ) ;
#127 = CALENDAR_DATE ( 2026, 18, 6 ) ;
#128 = DIRECTION ( 'NONE',  ( 1.000000000000000000, 0.000000000000000000, 0.000000000000000000 ) ) ;
#129 = VERTEX_POINT ( 'NONE', #121 ) ;
#130 = PERSON_AND_ORGANIZATION ( #234, #261 ) ;
#131 = DIRECTION ( 'NONE',  ( 0.000000000000000000, 0.000000000000000000, 1.000000000000000000 ) ) ;
#132 = CIRCLE ( 'NONE', #246, 32.50000000000000000 ) ;
#133 =( NAMED_UNIT ( * ) SI_UNIT ( $, .STERADIAN. ) SOLID_ANGLE_UNIT ( ) );
#134 = ORIENTED_EDGE ( 'NONE', *, *, #237, .T. ) ;
#135 = EDGE_LOOP ( 'NONE', ( #220, #150, #74, #222 ) ) ;
#136 = PLANE ( 'NONE',  #225 ) ;
#137 = VECTOR ( 'NONE', #189, 1000.000000000000000 ) ;
#138 = VERTEX_POINT ( 'NONE', #63 ) ;
#139 = ORIENTED_EDGE ( 'NONE', *, *, #266, .T. ) ;
#140 = FACE_OUTER_BOUND ( 'NONE', #155, .T. ) ;
#141 = DATE_TIME_ROLE ( 'classification_date' ) ;
#142 = CARTESIAN_POINT ( 'NONE',  ( 0.000000000000000000, 10.00000000000000000, 0.000000000000000000 ) ) ;
#143 = SHAPE_DEFINITION_REPRESENTATION ( #80, #106 ) ;
#144 = FACE_OUTER_BOUND ( 'NONE', #217, .T. ) ;
#145 = CARTESIAN_POINT ( 'NONE',  ( 4.592425496802575156E-15, 10.00000000000000000, 37.50000000000000711 ) ) ;
#146 = DIRECTION ( 'NONE',  ( 0.000000000000000000, 0.000000000000000000, 1.000000000000000000 ) ) ;
#147 = LINE ( 'NONE', #206, #45 ) ;
#148 = FACE_BOUND ( 'NONE', #159, .T. ) ;
#149 = APPROVAL_STATUS ( 'not_yet_approved' ) ;
#150 = ORIENTED_EDGE ( 'NONE', *, *, #151, .T. ) ;
#151 = EDGE_CURVE ( 'NONE', #105, #288, #24, .T. ) ;
#152 = DATE_AND_TIME ( #286, #233 ) ;
#153 = CC_DESIGN_DATE_AND_TIME_ASSIGNMENT ( #98, #251, ( #123 ) ) ;
#154 = ORIENTED_EDGE ( 'NONE', *, *, #263, .T. ) ;
#155 = EDGE_LOOP ( 'NONE', ( #272, #268, #276, #211 ) ) ;
#156 = CIRCLE ( 'NONE', #58, 37.50000000000000711 ) ;
#157 = VECTOR ( 'NONE', #170, 1000.000000000000000 ) ;
#158 = DESIGN_CONTEXT ( 'detailed design', #264, 'design' ) ;
#159 = EDGE_LOOP ( 'NONE', ( #293, #210 ) ) ;
#160 = CARTESIAN_POINT ( 'NONE',  ( 4.592425496802575156E-15, 10.00000000000000000, 37.50000000000000711 ) ) ;
#161 = CALENDAR_DATE ( 2026, 18, 6 ) ;
#162 = AXIS2_PLACEMENT_3D ( 'NONE', #203, #4, #256 ) ;
#163 = CARTESIAN_POINT ( 'NONE',  ( 0.000000000000000000, 10.00000000000000000, 0.000000000000000000 ) ) ;
#164 = APPROVAL ( #149, 'UNSPECIFIED' ) ;
#165 = DIRECTION ( 'NONE',  ( 0.000000000000000000, 1.000000000000000000, 0.000000000000000000 ) ) ;
#166 = DIRECTION ( 'NONE',  ( 0.000000000000000000, 1.000000000000000000, 0.000000000000000000 ) ) ;
#167 = DIRECTION ( 'NONE',  ( 6.300755800592197211E-17, -0.8574929257125442073, 0.5144957554275264577 ) ) ;
#168 = AXIS2_PLACEMENT_3D ( 'NONE', #70, #47, #7 ) ;
#169 = CC_DESIGN_APPROVAL ( #164, ( #123 ) ) ;
#170 = DIRECTION ( 'NONE',  ( 6.300755800592197211E-17, 0.8574929257125442073, -0.5144957554275264577 ) ) ;
#171 = DIRECTION ( 'NONE',  ( 0.000000000000000000, -0.8574929257125442073, -0.5144957554275264577 ) ) ;
#172 = PRODUCT_DEFINITION_FORMATION_WITH_SPECIFIED_SOURCE ( 'ANY', '', #101, .NOT_KNOWN. ) ;
#173 = EDGE_CURVE ( 'NONE', #10, #271, #280, .T. ) ;
#174 = CARTESIAN_POINT ( 'NONE',  ( 0.000000000000000000, 10.00000000000000000, 0.000000000000000000 ) ) ;
#175 = EDGE_CURVE ( 'NONE', #247, #271, #258, .T. ) ;
#176 = DIRECTION ( 'NONE',  ( 0.000000000000000000, 0.000000000000000000, 1.000000000000000000 ) ) ;
#177 = CC_DESIGN_PERSON_AND_ORGANIZATION_ASSIGNMENT ( #255, #83, ( #103 ) ) ;
#178 = EDGE_LOOP ( 'NONE', ( #35, #139, #53, #240 ) ) ;
#179 = APPROVAL_PERSON_ORGANIZATION ( #224, #34, #20 ) ;
#180 = EDGE_LOOP ( 'NONE', ( #134, #29 ) ) ;
#181 = EDGE_LOOP ( 'NONE', ( #54, #243 ) ) ;
#182 = AXIS2_PLACEMENT_3D ( 'NONE', #223, #112, #199 ) ;
#183 = CARTESIAN_POINT ( 'NONE',  ( 3.980102097228898626E-15, 0.000000000000000000, 32.50000000000000000 ) ) ;
#184 = DIRECTION ( 'NONE',  ( 1.000000000000000000, 0.000000000000000000, 0.000000000000000000 ) ) ;
#185 = COORDINATED_UNIVERSAL_TIME_OFFSET ( 9, 0, .AHEAD. ) ;
#186 = ADVANCED_FACE ( 'NONE', ( #278 ), #292, .F. ) ;
#187 = CARTESIAN_POINT ( 'NONE',  ( 0.000000000000000000, 0.000000000000000000, 0.000000000000000000 ) ) ;
#188 = DIRECTION ( 'NONE',  ( 0.000000000000000000, 0.000000000000000000, 1.000000000000000000 ) ) ;
#189 = DIRECTION ( 'NONE',  ( -0.000000000000000000, -1.000000000000000000, -0.000000000000000000 ) ) ;
#190 = CARTESIAN_POINT ( 'NONE',  ( 3.980102097228898626E-15, 10.00000000000000000, -32.50000000000000000 ) ) ;
#191 = LOCAL_TIME ( 18, 46, 5.000000000000000000, #277 ) ;
#192 = EDGE_LOOP ( 'NONE', ( #32, #56, #17, #31 ) ) ;
#193 = PERSON_AND_ORGANIZATION_ROLE ( 'creator' ) ;
#194 = EDGE_LOOP ( 'NONE', ( #213, #196, #13, #107 ) ) ;
#195 = AXIS2_PLACEMENT_3D ( 'NONE', #23, #281, #66 ) ;
#196 = ORIENTED_EDGE ( 'NONE', *, *, #244, .T. ) ;
#197 = EDGE_CURVE ( 'NONE', #288, #115, #27, .T. ) ;
#198 = VECTOR ( 'NONE', #171, 1000.000000000000000 ) ;
#199 = DIRECTION ( 'NONE',  ( 0.000000000000000000, 0.000000000000000000, -1.000000000000000000 ) ) ;
#200 = EDGE_CURVE ( 'NONE', #10, #61, #120, .T. ) ;
#201 = CC_DESIGN_PERSON_AND_ORGANIZATION_ASSIGNMENT ( #130, #11, ( #101 ) ) ;
#202 = DIRECTION ( 'NONE',  ( 0.000000000000000000, 0.000000000000000000, -1.000000000000000000 ) ) ;
#203 = CARTESIAN_POINT ( 'NONE',  ( 0.000000000000000000, 5.000000000000000000, 0.000000000000000000 ) ) ;
#204 = DIRECTION ( 'NONE',  ( 0.000000000000000000, 0.000000000000000000, 1.000000000000000000 ) ) ;
#205 = DIRECTION ( 'NONE',  ( 0.000000000000000000, 1.000000000000000000, 0.000000000000000000 ) ) ;
#206 = CARTESIAN_POINT ( 'NONE',  ( 0.000000000000000000, 10.00000000000000000, -37.50000000000000711 ) ) ;
#207 = CARTESIAN_POINT ( 'NONE',  ( 3.612708057484692393E-15, 5.000000000000000000, 29.50000000000000355 ) ) ;
#208 = CIRCLE ( 'NONE', #283, 37.50000000000000711 ) ;
#209 = CC_DESIGN_PERSON_AND_ORGANIZATION_ASSIGNMENT ( #104, #193, ( #123 ) ) ;
#210 = ORIENTED_EDGE ( 'NONE', *, *, #175, .F. ) ;
#211 = ORIENTED_EDGE ( 'NONE', *, *, #117, .F. ) ;
#212 = EDGE_CURVE ( 'NONE', #115, #288, #64, .T. ) ;
#213 = ORIENTED_EDGE ( 'NONE', *, *, #91, .T. ) ;
#214 = VECTOR ( 'NONE', #167, 1000.000000000000000 ) ;
#215 = AXIS2_PLACEMENT_3D ( 'NONE', #76, #176, #128 ) ;
#216 = CARTESIAN_POINT ( 'NONE',  ( 0.000000000000000000, 5.000000000000000000, -29.50000000000000355 ) ) ;
#217 = EDGE_LOOP ( 'NONE', ( #299, #12, #154, #14 ) ) ;
#218 = DIRECTION ( 'NONE',  ( 0.000000000000000000, 0.000000000000000000, 1.000000000000000000 ) ) ;
#219 = EDGE_CURVE ( 'NONE', #138, #105, #156, .T. ) ;
#220 = ORIENTED_EDGE ( 'NONE', *, *, #119, .F. ) ;
#221 = PERSON_AND_ORGANIZATION_ROLE ( 'creator' ) ;
#222 = ORIENTED_EDGE ( 'NONE', *, *, #263, .F. ) ;
#223 = CARTESIAN_POINT ( 'NONE',  ( 0.000000000000000000, 5.000000000000000000, 0.000000000000000000 ) ) ;
#224 = PERSON_AND_ORGANIZATION ( #234, #261 ) ;
#225 = AXIS2_PLACEMENT_3D ( 'NONE', #21, #37, #57 ) ;
#226 = DIRECTION ( 'NONE',  ( -0.000000000000000000, -1.000000000000000000, -0.000000000000000000 ) ) ;
#227 = APPROVAL_ROLE ( '' ) ;
#228 = DIRECTION ( 'NONE',  ( 0.000000000000000000, 0.000000000000000000, 1.000000000000000000 ) ) ;
#229 = CARTESIAN_POINT ( 'NONE',  ( 0.000000000000000000, 0.000000000000000000, 0.000000000000000000 ) ) ;
#230 = ADVANCED_FACE ( 'NONE', ( #144 ), #67, .T. ) ;
#231 = AXIS2_PLACEMENT_3D ( 'NONE', #26, #92, #44 ) ;
#232 = LINE ( 'NONE', #207, #214 ) ;
#233 = LOCAL_TIME ( 18, 46, 5.000000000000000000, #238 ) ;
#234 = PERSON ( 'UNSPECIFIED', 'UNSPECIFIED', 'UNSPECIFIED', ('UNSPECIFIED'), ('UNSPECIFIED'), ('UNSPECIFIED') ) ;
#235 = DIRECTION ( 'NONE',  ( 0.000000000000000000, 1.000000000000000000, 0.000000000000000000 ) ) ;
#236 = DIRECTION ( 'NONE',  ( 0.000000000000000000, 0.000000000000000000, 1.000000000000000000 ) ) ;
#237 = EDGE_CURVE ( 'NONE', #129, #73, #102, .T. ) ;
#238 = COORDINATED_UNIVERSAL_TIME_OFFSET ( 9, 0, .AHEAD. ) ;
#239 = AXIS2_PLACEMENT_3D ( 'NONE', #118, #166, #257 ) ;
#240 = ORIENTED_EDGE ( 'NONE', *, *, #173, .F. ) ;
#241 = CIRCLE ( 'NONE', #113, 32.50000000000000000 ) ;
#242 = APPROVAL_DATE_TIME ( #152, #164 ) ;
#243 = ORIENTED_EDGE ( 'NONE', *, *, #119, .T. ) ;
#244 = EDGE_CURVE ( 'NONE', #10, #73, #232, .T. ) ;
#245 = APPROVAL_STATUS ( 'not_yet_approved' ) ;
#246 = AXIS2_PLACEMENT_3D ( 'NONE', #187, #235, #188 ) ;
#247 = VERTEX_POINT ( 'NONE', #190 ) ;
#248 = PERSON_AND_ORGANIZATION ( #234, #261 ) ;
#249 = FACE_BOUND ( 'NONE', #180, .T. ) ;
#250 = ADVANCED_FACE ( 'NONE', ( #260 ), #295, .F. ) ;
#251 = DATE_TIME_ROLE ( 'creation_date' ) ;
#252 = FACE_OUTER_BOUND ( 'NONE', #135, .T. ) ;
#253 = DATE_AND_TIME ( #161, #191 ) ;
#254 = DIRECTION ( 'NONE',  ( 0.000000000000000000, 1.000000000000000000, 0.000000000000000000 ) ) ;
#255 = PERSON_AND_ORGANIZATION ( #234, #261 ) ;
#256 = DIRECTION ( 'NONE',  ( 0.000000000000000000, 0.000000000000000000, -1.000000000000000000 ) ) ;
#257 = DIRECTION ( 'NONE',  ( 0.000000000000000000, 0.000000000000000000, 1.000000000000000000 ) ) ;
#258 = CIRCLE ( 'NONE', #77, 32.50000000000000000 ) ;
#259 = AXIS2_PLACEMENT_3D ( 'NONE', #79, #59, #218 ) ;
#260 = FACE_OUTER_BOUND ( 'NONE', #192, .T. ) ;
#261 = ORGANIZATION ( 'UNSPECIFIED', 'UNSPECIFIED', '' ) ;
#262 = CARTESIAN_POINT ( 'NONE',  ( 0.000000000000000000, 10.00000000000000000, 32.50000000000000000 ) ) ;
#263 = EDGE_CURVE ( 'NONE', #138, #115, #147, .T. ) ;
#264 = APPLICATION_CONTEXT ( 'configuration controlled 3d designs of mechanical parts and assemblies' ) ;
#265 = AXIS2_PLACEMENT_3D ( 'NONE', #229, #122, #43 ) ;
#266 = EDGE_CURVE ( 'NONE', #61, #247, #93, .T. ) ;
#267 =( LENGTH_UNIT ( ) NAMED_UNIT ( * ) SI_UNIT ( .MILLI., .METRE. ) );
#268 = ORIENTED_EDGE ( 'NONE', *, *, #200, .T. ) ;
#269 = APPLICATION_PROTOCOL_DEFINITION ( 'international standard', 'config_control_design', 1994, #86 ) ;
#270 = CIRCLE ( 'NONE', #111, 29.50000000000000355 ) ;
#271 = VERTEX_POINT ( 'NONE', #262 ) ;
#272 = ORIENTED_EDGE ( 'NONE', *, *, #244, .F. ) ;
#273 = CALENDAR_DATE ( 2026, 18, 6 ) ;
#274 = FACE_OUTER_BOUND ( 'NONE', #178, .T. ) ;
#275 = DATE_AND_TIME ( #273, #52 ) ;
#276 = ORIENTED_EDGE ( 'NONE', *, *, #291, .T. ) ;
#277 = COORDINATED_UNIVERSAL_TIME_OFFSET ( 9, 0, .AHEAD. ) ;
#278 = FACE_OUTER_BOUND ( 'NONE', #194, .T. ) ;
#279 = AXIS2_PLACEMENT_3D ( 'NONE', #89, #3, #146 ) ;
#280 = LINE ( 'NONE', #65, #51 ) ;
#281 = DIRECTION ( 'NONE',  ( 0.000000000000000000, 1.000000000000000000, 0.000000000000000000 ) ) ;
#282 = CARTESIAN_POINT ( 'NONE',  ( 0.000000000000000000, 10.00000000000000000, 0.000000000000000000 ) ) ;
#283 = AXIS2_PLACEMENT_3D ( 'NONE', #87, #205, #204 ) ;
#284 = CARTESIAN_POINT ( 'NONE',  ( 3.980102097228898626E-15, 10.00000000000000000, -32.50000000000000000 ) ) ;
#285 =( NAMED_UNIT ( * ) PLANE_ANGLE_UNIT ( ) SI_UNIT ( $, .RADIAN. ) );
#286 = CALENDAR_DATE ( 2026, 18, 6 ) ;
#287 = ADVANCED_FACE ( 'NONE', ( #48, #148 ), #124, .T. ) ;
#288 = VERTEX_POINT ( 'NONE', #1 ) ;
#289 = COORDINATED_UNIVERSAL_TIME_OFFSET ( 9, 0, .AHEAD. ) ;
#290 = EDGE_CURVE ( 'NONE', #271, #247, #241, .T. ) ;
#291 = EDGE_CURVE ( 'NONE', #61, #129, #72, .T. ) ;
#292 = CONICAL_SURFACE ( 'NONE', #162, 29.50000000000000355, 0.5404195002705840523 ) ;
#293 = ORIENTED_EDGE ( 'NONE', *, *, #290, .F. ) ;
#294 = EDGE_LOOP ( 'NONE', ( #30, #100 ) ) ;
#295 = CONICAL_SURFACE ( 'NONE', #168, 32.50000000000000000, 0.5404195002705840523 ) ;
#296 = SECURITY_CLASSIFICATION_LEVEL ( 'unclassified' ) ;
#297 = LOCAL_TIME ( 18, 46, 5.000000000000000000, #289 ) ;
#298 = CARTESIAN_POINT ( 'NONE',  ( 0.000000000000000000, 5.000000000000000000, 0.000000000000000000 ) ) ;
#299 = ORIENTED_EDGE ( 'NONE', *, *, #151, .F. ) ;
ENDSEC;
END-ISO-10303-21;
